<svg xmlns="http://www.w3.org/2000/svg" width="30" height="30" viewBox="0 0 30 30" fill="none"><rect width="30" height="30" rx="15" fill="#2457A1"/><path d="M15.1928 23C15.0577 22.817 14.9334 22.6563 14.8172 22.4899C13.8752 21.1418 12.9223 19.8011 11.9982 18.4408C11.4031 17.5647 10.8844 16.6411 10.4861 15.6555C10.1932 14.9308 9.96426 14.1842 10.0046 13.396C10.1189 11.1648 11.1131 9.46805 13.14 8.45521C13.8501 8.10041 14.6198 7.95187 15.429 8.01361C17.569 8.17689 19.011 9.30996 19.8928 11.2104C20.3211 12.1335 20.4724 13.1167 20.3438 14.1305C20.2581 14.8059 20.0285 15.4419 19.7496 16.0604C19.3604 16.9236 18.885 17.7399 18.3518 18.5191C17.51 19.7495 16.6436 20.963 15.7877 22.1837C15.6502 22.3798 15.5143 22.5772 15.3751 22.7721C15.3236 22.8441 15.2646 22.9107 15.1928 23ZM15.1835 10.5904C13.8205 10.5366 12.7111 11.7745 12.7046 13.0222C12.6976 14.334 13.8431 15.4895 15.1581 15.4971C16.5247 15.505 17.6744 14.385 17.6769 13.0382C17.6793 11.7262 16.5419 10.5471 15.1835 10.5904Z" fill="white"/></svg>