<svg xmlns="http://www.w3.org/2000/svg" width="30" height="30" viewBox="0 0 30 30" fill="none"><rect width="30" height="30" rx="15" fill="#2457A1"/><path d="M19.0714 19.7347C18.7426 19.7347 18.4138 19.695 18.085 19.6156C17.7562 19.5363 17.4841 19.3946 17.2687 19.1905C16.7698 19.542 16.1406 19.7177 15.381 19.7177C14.8141 19.7177 14.2925 19.6327 13.8163 19.4626C13.3515 19.2812 12.949 19.0147 12.6088 18.6633C12.28 18.3118 12.0193 17.881 11.8265 17.3707C11.6451 16.8492 11.5544 16.2483 11.5544 15.568C11.5544 14.9898 11.6451 14.4512 11.8265 13.9524C12.0193 13.4535 12.2971 13.0227 12.6599 12.6599C13.0227 12.2857 13.4649 11.9909 13.9864 11.7755C14.5193 11.5601 15.1202 11.4524 15.7891 11.4524C16.458 11.4524 17.0476 11.5147 17.5578 11.6395C18.0794 11.7528 18.5102 11.8719 18.8503 11.9966V17.3367C18.8503 17.5975 18.9014 17.7732 19.0034 17.8639C19.1168 17.9546 19.2755 18 19.4796 18C19.661 18 19.8367 17.949 20.0068 17.8469C20.1882 17.7449 20.3413 17.5635 20.466 17.3027C20.5907 17.0306 20.6927 16.6678 20.7721 16.2143C20.8515 15.7494 20.8912 15.1655 20.8912 14.4626C20.8912 13.7596 20.7664 13.119 20.517 12.5408C20.2789 11.9512 19.9274 11.4524 19.4626 11.0442C19.0091 10.6247 18.4478 10.3016 17.7789 10.0748C17.1213 9.83673 16.373 9.71769 15.534 9.71769C14.729 9.71769 13.9864 9.85374 13.3061 10.1259C12.6372 10.398 12.0533 10.7891 11.5544 11.2993C11.0669 11.7982 10.6814 12.4104 10.398 13.1361C10.1259 13.8617 9.9898 14.678 9.9898 15.585C9.9898 16.5261 10.1259 17.3537 10.398 18.068C10.6701 18.771 11.0556 19.3605 11.5544 19.8367C12.0646 20.3129 12.6769 20.6701 13.3912 20.9082C14.1168 21.1576 14.9331 21.2823 15.8401 21.2823C16.407 21.2823 16.9399 21.2426 17.4388 21.1633C17.949 21.0952 18.3741 21.0272 18.7143 20.9592L18.9694 22.5578C18.6859 22.6485 18.2551 22.7449 17.6769 22.8469C17.0986 22.949 16.4864 23 15.8401 23C14.7517 23 13.7313 22.8583 12.7789 22.5748C11.8265 22.2914 10.9932 21.8492 10.2789 21.2483C9.57596 20.6474 9.02041 19.8821 8.61224 18.9524C8.20408 18.0113 8 16.8889 8 15.585C8 14.3265 8.21542 13.2268 8.64626 12.2857C9.0771 11.3333 9.64399 10.5397 10.3469 9.90476C11.0499 9.26984 11.8492 8.79365 12.7449 8.47619C13.6519 8.15873 14.5816 8 15.534 8C16.5771 8 17.5465 8.14739 18.4422 8.44218C19.3379 8.72562 20.1088 9.14512 20.7551 9.70068C21.4127 10.2562 21.9286 10.9478 22.3027 11.7755C22.6769 12.5918 22.8639 13.5329 22.8639 14.5986C22.8639 15.4263 22.7732 16.1633 22.5918 16.8095C22.4218 17.4444 22.1667 17.9773 21.8265 18.4082C21.4977 18.839 21.1009 19.1678 20.6361 19.3946C20.1712 19.6213 19.6497 19.7347 19.0714 19.7347ZM16.6735 17.7109C16.6508 17.6202 16.6338 17.4898 16.6224 17.3197C16.6111 17.1383 16.6054 16.9683 16.6054 16.8095V13.3401C16.3787 13.2948 16.1406 13.2721 15.8912 13.2721C15.517 13.2721 15.1995 13.3345 14.9388 13.4592C14.678 13.5726 14.4683 13.7313 14.3095 13.9354C14.1508 14.1395 14.0317 14.3832 13.9524 14.6667C13.8844 14.9388 13.8503 15.2392 13.8503 15.568C13.8503 15.8968 13.8787 16.2029 13.9354 16.4864C13.9921 16.7585 14.0884 16.9966 14.2245 17.2007C14.3719 17.4048 14.5646 17.5692 14.8027 17.6939C15.0408 17.8073 15.3356 17.8639 15.6871 17.8639C15.8912 17.8639 16.0839 17.8526 16.2653 17.8299C16.4467 17.7959 16.5828 17.7562 16.6735 17.7109Z" fill="white"/></svg>