<svg width="206" height="46" viewBox="0 0 206 46" fill="none" xmlns="http://www.w3.org/2000/svg"><g clip-path="url(#clip0_15_748)"><path d="M27.2151 34.0015C28.21 32.9444 28.8211 31.5197 28.8211 29.9509C28.8211 26.6911 26.1876 24.0485 22.9389 24.0485C19.6902 24.0485 17.0566 26.6911 17.0566 29.9509C17.0566 31.5197 17.6677 32.9444 18.6627 34.0015H27.2151Z" fill="#2457A1"/><path d="M13.5268 12.9675L13.157 12.3248L12.1261 12.9221V11.7276H11.3865V12.9221L10.3556 12.3248L9.98584 12.9675L11.0167 13.5647L9.98584 14.1619L10.3556 14.8046L11.3865 14.2074V15.4018H12.1261V14.2074L13.157 14.8046L13.5268 14.1619L12.4959 13.5647L13.5268 12.9675Z" fill="#2457A1"/><path d="M35.8862 12.9675L35.5164 12.3248L34.4855 12.9221V11.7276H33.7459V12.9221L32.715 12.3248L32.3452 12.9675L33.3761 13.5647L32.3452 14.1619L32.715 14.8046L33.7459 14.2074V15.4018H34.4855V14.2074L35.5164 14.8046L35.8862 14.1619L34.8552 13.5647L35.8862 12.9675Z" fill="#2457A1"/><path fill-rule="evenodd" clip-rule="evenodd" d="M4.36796 34.8782C4.27656 34.8108 4.14799 34.8305 4.08077 34.9222L3.13057 36.2144C3.08143 36.2814 2.98749 36.2957 2.92076 36.2464C2.85403 36.197 2.83977 36.1028 2.88892 36.0358L3.37062 35.3796L3.75244 34.8586C3.82546 34.759 3.79601 34.6153 3.68335 34.5544C3.59079 34.5044 3.47439 34.5422 3.4121 34.6272L3.07914 35.0815C3.04161 35.1327 2.9683 35.1404 2.92104 35.098L2.58973 34.8014C2.49806 34.7187 2.35269 34.7341 2.28125 34.8406C2.22257 34.9281 2.24866 35.0481 2.32684 35.1186L2.69212 35.4459C2.73315 35.4827 2.73961 35.5447 2.70702 35.5892L2.35648 36.0675C2.29169 36.1559 2.16001 36.1559 2.09521 36.0675L1.74468 35.5892C1.71209 35.5447 1.71853 35.4827 1.75957 35.4459L2.12485 35.1186C2.20305 35.048 2.22914 34.9281 2.17045 34.8406C2.09901 34.7341 1.95362 34.7187 1.86196 34.8014L1.53066 35.098C1.48339 35.1404 1.41008 35.1327 1.37255 35.0815L1.03959 34.6272C0.977307 34.5422 0.860902 34.5044 0.768348 34.5544C0.655686 34.6153 0.626233 34.759 0.699256 34.8586L1.08108 35.3796L1.56277 36.0358C1.61192 36.1028 1.59766 36.197 1.53093 36.2464C1.4642 36.2957 1.37027 36.2814 1.32112 36.2144L0.370928 34.9222C0.303708 34.8305 0.175132 34.8108 0.0837341 34.8782C-0.00766419 34.9457 -0.0272702 35.0747 0.0399503 35.1664L1.0476 36.5373C1.08983 36.5949 1.22558 36.6616 1.34584 36.6616H3.10584C3.2261 36.6616 3.36185 36.5949 3.40408 36.5373L4.41173 35.1664C4.47895 35.0747 4.45936 34.9457 4.36796 34.8782ZM4.23701 36.3153C4.32841 36.3828 4.45699 36.3631 4.52421 36.2714L5.4744 34.9792C5.52355 34.9122 5.61748 34.8979 5.68421 34.9472C5.75094 34.9965 5.7652 35.0908 5.71605 35.1577L5.23436 35.814L4.85253 36.3349C4.77951 36.4346 4.80896 36.5782 4.92163 36.6392C5.01418 36.6892 5.13059 36.6514 5.19287 36.5664L5.52583 36.1121C5.56336 36.0609 5.63667 36.0532 5.68394 36.0955L6.01524 36.3922C6.10692 36.4749 6.25228 36.4595 6.32372 36.353C6.3824 36.2654 6.35632 36.1455 6.27813 36.075L5.91285 35.7477C5.87182 35.7109 5.86536 35.6489 5.89796 35.6044L6.24849 35.1261C6.31329 35.0377 6.44496 35.0377 6.50976 35.1261L6.86029 35.6044C6.89289 35.6489 6.88644 35.7109 6.8454 35.7477L6.48012 36.075C6.40192 36.1455 6.37584 36.2654 6.43453 36.353C6.50597 36.4595 6.65135 36.4749 6.74301 36.3922L7.07432 36.0955C7.12158 36.0532 7.19489 36.0609 7.23242 36.1121L7.56538 36.5664C7.62767 36.6514 7.74407 36.6892 7.83663 36.6392C7.94929 36.5782 7.97874 36.4346 7.90572 36.3349L7.5239 35.814L7.0422 35.1577C6.99305 35.0908 7.00731 34.9965 7.07404 34.9472C7.14077 34.8979 7.23471 34.9122 7.28385 34.9792L8.23405 36.2714C8.30127 36.3631 8.42984 36.3828 8.52124 36.3153C8.61264 36.2479 8.63224 36.1189 8.56502 36.0272L7.55737 34.6563C7.51514 34.5987 7.3794 34.532 7.25913 34.532H5.49913C5.37887 34.532 5.24312 34.5987 5.2009 34.6563L4.19324 36.0272C4.12602 36.1189 4.14561 36.2479 4.23701 36.3153ZM12.3873 34.9222C12.4545 34.8305 12.5831 34.8108 12.6745 34.8782C12.7659 34.9457 12.7855 35.0747 12.7183 35.1664L11.7106 36.5373C11.6684 36.5949 11.5326 36.6616 11.4124 36.6616H9.65236C9.5321 36.6616 9.39635 36.5949 9.35412 36.5373L8.34647 35.1664C8.27925 35.0747 8.29885 34.9457 8.39025 34.8782C8.48165 34.8108 8.61023 34.8305 8.67745 34.9222L9.62764 36.2144C9.67679 36.2814 9.77072 36.2957 9.83745 36.2464C9.90418 36.197 9.91844 36.1028 9.86929 36.0358L9.3876 35.3796L9.00577 34.8586C8.93275 34.759 8.96221 34.6153 9.07487 34.5544C9.16742 34.5044 9.28383 34.5422 9.34611 34.6272L9.67907 35.0815C9.7166 35.1327 9.78991 35.1404 9.83718 35.098L10.1685 34.8014C10.2601 34.7187 10.4055 34.7341 10.477 34.8406C10.5357 34.9281 10.5096 35.048 10.4314 35.1186L10.0661 35.4459C10.025 35.4827 10.0186 35.5447 10.0512 35.5892L10.4017 36.0675C10.4665 36.1559 10.5982 36.1559 10.663 36.0675L11.0135 35.5892C11.0461 35.5447 11.0397 35.4827 10.9986 35.4459L10.6334 35.1186C10.5552 35.0481 10.5291 34.9281 10.5878 34.8406C10.6592 34.7341 10.8046 34.7187 10.8963 34.8014L11.2276 35.098C11.2748 35.1404 11.3481 35.1327 11.3857 35.0815L11.7186 34.6272C11.7809 34.5422 11.8973 34.5044 11.9899 34.5544C12.1025 34.6153 12.132 34.759 12.059 34.8586L11.6771 35.3796L11.1954 36.0358C11.1463 36.1028 11.1605 36.197 11.2273 36.2464C11.294 36.2957 11.3879 36.2814 11.4371 36.2144L12.3873 34.9222ZM12.5435 36.3153C12.6349 36.3828 12.7635 36.3631 12.8307 36.2714L13.7809 34.9792C13.8301 34.9122 13.924 34.8979 13.9907 34.9472C14.0575 34.9965 14.0717 35.0908 14.0226 35.1577L13.5409 35.814L13.1591 36.3349C13.086 36.4346 13.1155 36.5782 13.2281 36.6392C13.3207 36.6892 13.4371 36.6514 13.4994 36.5664L13.8324 36.1121C13.8699 36.0609 13.9432 36.0532 13.9905 36.0955L14.3218 36.3922C14.4134 36.4749 14.5588 36.4595 14.6302 36.353C14.6889 36.2654 14.6628 36.1455 14.5847 36.075L14.2194 35.7477C14.1783 35.7109 14.1719 35.6489 14.2045 35.6044L14.555 35.1261C14.6198 35.0377 14.7515 35.0377 14.8163 35.1261L15.1668 35.6044C15.1994 35.6489 15.193 35.7109 15.1519 35.7477L14.7866 36.075C14.7084 36.1455 14.6824 36.2654 14.741 36.353C14.8125 36.4595 14.9579 36.4749 15.0495 36.3922L15.3808 36.0955C15.4281 36.0532 15.5014 36.0609 15.5389 36.1121L15.8719 36.5664C15.9342 36.6514 16.0506 36.6892 16.1431 36.6392C16.2558 36.5782 16.2853 36.4346 16.2122 36.3349L15.8304 35.814L15.3487 35.1577C15.2996 35.0908 15.3138 34.9965 15.3806 34.9472C15.4473 34.8979 15.5412 34.9122 15.5904 34.9792L16.5406 36.2714C16.6078 36.3631 16.7364 36.3828 16.8278 36.3153C16.9192 36.2479 16.9388 36.1189 16.8715 36.0272L15.8639 34.6563C15.8217 34.5987 15.6859 34.532 15.5657 34.532H13.8056C13.6854 34.532 13.5496 34.5987 13.5074 34.6563L12.4998 36.0272C12.4325 36.1189 12.4521 36.2479 12.5435 36.3153ZM20.6938 34.9222C20.761 34.8305 20.8896 34.8108 20.981 34.8782C21.0724 34.9457 21.092 35.0747 21.0248 35.1664L20.0171 36.5373C19.9749 36.5949 19.8391 36.6616 19.7189 36.6616H17.9589C17.8386 36.6616 17.7029 36.5949 17.6606 36.5373L16.653 35.1664C16.5858 35.0747 16.6054 34.9457 16.6968 34.8782C16.7882 34.8108 16.9167 34.8305 16.984 34.9222L17.9342 36.2144C17.9833 36.2814 18.0772 36.2957 18.144 36.2464C18.2107 36.197 18.225 36.1028 18.1758 36.0358L17.6941 35.3796L17.3123 34.8586C17.2393 34.759 17.2687 34.6153 17.3814 34.5544C17.4739 34.5044 17.5903 34.5422 17.6526 34.6272L17.9856 35.0815C18.0231 35.1327 18.0964 35.1404 18.1437 35.098L18.475 34.8014C18.5667 34.7187 18.712 34.7341 18.7835 34.8406C18.8422 34.9281 18.8161 35.048 18.7379 35.1186L18.3726 35.4459C18.3316 35.4827 18.3251 35.5447 18.3577 35.5892L18.7082 36.0675C18.773 36.1559 18.9047 36.1559 18.9695 36.0675L19.3201 35.5892C19.3526 35.5447 19.3462 35.4827 19.3052 35.4459L18.9399 35.1186C18.8617 35.0481 18.8356 34.9281 18.8943 34.8406C18.9657 34.7341 19.1111 34.7187 19.2028 34.8014L19.5341 35.098C19.5813 35.1404 19.6546 35.1327 19.6922 35.0815L20.0251 34.6272C20.0874 34.5422 20.2038 34.5044 20.2964 34.5544C20.409 34.6153 20.4385 34.759 20.3655 34.8586L19.9837 35.3796L19.502 36.0358C19.4528 36.1028 19.4671 36.197 19.5338 36.2464C19.6005 36.2957 19.6945 36.2814 19.7436 36.2144L20.6938 34.9222ZM20.85 36.3153C20.9414 36.3828 21.07 36.3631 21.1372 36.2714L22.0874 34.9792C22.1366 34.9122 22.2305 34.8979 22.2972 34.9472C22.364 34.9965 22.3782 35.0908 22.3291 35.1577L21.8474 35.814L21.4656 36.3349C21.3925 36.4346 21.422 36.5782 21.5347 36.6392C21.6272 36.6892 21.7436 36.6514 21.8059 36.5664L22.1389 36.1121C22.1764 36.0609 22.2497 36.0532 22.297 36.0955L22.6283 36.3922C22.72 36.4749 22.8653 36.4595 22.9368 36.353C22.9954 36.2654 22.9694 36.1455 22.8912 36.075L22.5259 35.7477C22.4849 35.7109 22.4784 35.6489 22.511 35.6044L22.8615 35.1261C22.9263 35.0377 23.058 35.0377 23.1228 35.1261L23.4733 35.6044C23.5059 35.6489 23.4995 35.7109 23.4584 35.7477L23.0932 36.075C23.015 36.1455 22.9889 36.2654 23.0476 36.353C23.119 36.4595 23.2644 36.4749 23.356 36.3922L23.6874 36.0955C23.7346 36.0532 23.8079 36.0609 23.8455 36.1121L24.1784 36.5664C24.2407 36.6514 24.3571 36.6892 24.4497 36.6392C24.5623 36.5782 24.5918 36.4346 24.5188 36.3349L24.1369 35.814L23.6552 35.1577C23.6061 35.0908 23.6203 34.9965 23.6871 34.9472C23.7538 34.8979 23.8477 34.9122 23.8969 34.9792L24.8471 36.2714C24.9143 36.3631 25.0429 36.3828 25.1343 36.3153C25.2257 36.2479 25.2453 36.1189 25.1781 36.0272L24.1704 34.6563C24.1282 34.5987 23.9924 34.532 23.8722 34.532H22.1122C21.9919 34.532 21.8562 34.5987 21.8139 34.6563L20.8063 36.0272C20.7391 36.1189 20.7586 36.2479 20.85 36.3153ZM29.0003 34.9222C29.0675 34.8305 29.1961 34.8108 29.2875 34.8782C29.3789 34.9457 29.3985 35.0747 29.3313 35.1664L28.3236 36.5373C28.2814 36.5949 28.1457 36.6616 28.0254 36.6616H26.2654C26.1451 36.6616 26.0094 36.5949 25.9672 36.5373L24.9595 35.1664C24.8923 35.0747 24.9119 34.9457 25.0033 34.8782C25.0947 34.8108 25.2233 34.8305 25.2905 34.9222L26.2407 36.2144C26.2898 36.2814 26.3838 36.2957 26.4505 36.2464C26.5172 36.197 26.5315 36.1028 26.4823 36.0358L26.0006 35.3796L25.6188 34.8586C25.5458 34.759 25.5752 34.6153 25.6879 34.5544C25.7805 34.5044 25.8969 34.5422 25.9591 34.6272L26.2921 35.0815C26.3296 35.1327 26.403 35.1404 26.4502 35.098L26.7815 34.8014C26.8732 34.7187 27.0186 34.7341 27.09 34.8406C27.1487 34.9281 27.1226 35.048 27.0444 35.1186L26.6791 35.4459C26.6381 35.4827 26.6316 35.5447 26.6642 35.5892L27.0148 36.0675C27.0796 36.1559 27.2112 36.1559 27.276 36.0675L27.6266 35.5892C27.6592 35.5447 27.6527 35.4827 27.6117 35.4459L27.2464 35.1186C27.1682 35.0481 27.1421 34.9281 27.2008 34.8406C27.2722 34.7341 27.4176 34.7187 27.5093 34.8014L27.8406 35.098C27.8879 35.1404 27.9612 35.1327 27.9987 35.0815L28.3317 34.6272C28.3939 34.5422 28.5103 34.5044 28.6029 34.5544C28.7156 34.6153 28.745 34.759 28.672 34.8586L28.2902 35.3796L27.8085 36.0358C27.7593 36.1028 27.7736 36.197 27.8403 36.2464C27.907 36.2957 28.001 36.2814 28.0501 36.2144L29.0003 34.9222ZM29.1566 36.3153C29.248 36.3828 29.3765 36.3631 29.4438 36.2714L30.394 34.9792C30.4431 34.9122 30.537 34.8979 30.6038 34.9472C30.6705 34.9965 30.6848 35.0908 30.6356 35.1577L30.1539 35.814L29.7721 36.3349C29.6991 36.4346 29.7285 36.5782 29.8412 36.6392C29.9337 36.6892 30.0501 36.6514 30.1124 36.5664L30.4454 36.1121C30.4829 36.0609 30.5562 36.0532 30.6035 36.0955L30.9348 36.3922C31.0265 36.4749 31.1718 36.4595 31.2433 36.353C31.302 36.2654 31.2759 36.1455 31.1977 36.075L30.8324 35.7477C30.7914 35.7109 30.7849 35.6489 30.8175 35.6044L31.168 35.1261C31.2328 35.0377 31.3645 35.0377 31.4293 35.1261L31.7799 35.6044C31.8124 35.6489 31.806 35.7109 31.765 35.7477L31.3997 36.075C31.3215 36.1455 31.2954 36.2654 31.3541 36.353C31.4255 36.4595 31.5709 36.4749 31.6626 36.3922L31.9939 36.0955C32.0411 36.0532 32.1144 36.0609 32.152 36.1121L32.4849 36.5664C32.5472 36.6514 32.6636 36.6892 32.7562 36.6392C32.8688 36.5782 32.8983 36.4346 32.8253 36.3349L32.4435 35.814L31.9618 35.1577C31.9126 35.0908 31.9269 34.9965 31.9936 34.9472C32.0603 34.8979 32.1543 34.9122 32.2034 34.9792L33.1536 36.2714C33.2208 36.3631 33.3494 36.3828 33.4408 36.3153C33.5322 36.2479 33.5518 36.1189 33.4846 36.0272L32.4769 34.6563C32.4347 34.5987 32.299 34.532 32.1787 34.532H30.4187C30.2984 34.532 30.1627 34.5987 30.1205 34.6563L29.1128 36.0272C29.0456 36.1189 29.0652 36.2479 29.1566 36.3153ZM37.3068 34.9222C37.374 34.8305 37.5026 34.8108 37.594 34.8782C37.6854 34.9457 37.705 35.0747 37.6378 35.1664L36.6301 36.5373C36.5879 36.5949 36.4522 36.6616 36.3319 36.6616H34.5719C34.4516 36.6616 34.3159 36.5949 34.2737 36.5373L33.266 35.1664C33.1988 35.0747 33.2184 34.9457 33.3098 34.8782C33.4012 34.8108 33.5298 34.8305 33.597 34.9222L34.5472 36.2144C34.5963 36.2814 34.6903 36.2957 34.757 36.2464C34.8237 36.197 34.838 36.1028 34.7888 36.0358L34.3071 35.3796L33.9253 34.8586C33.8523 34.759 33.8817 34.6153 33.9944 34.5544C34.087 34.5044 34.2034 34.5422 34.2657 34.6272L34.5986 35.0815C34.6361 35.1327 34.7095 35.1404 34.7567 35.098L35.088 34.8014C35.1797 34.7187 35.3251 34.7341 35.3965 34.8406C35.4552 34.9281 35.4291 35.048 35.3509 35.1186L34.9856 35.4459C34.9446 35.4827 34.9381 35.5447 34.9707 35.5892L35.3213 36.0675C35.3861 36.1559 35.5177 36.1559 35.5825 36.0675L35.9331 35.5892C35.9657 35.5447 35.9592 35.4827 35.9182 35.4459L35.5529 35.1186C35.4747 35.0481 35.4486 34.9281 35.5073 34.8406C35.5787 34.7341 35.7241 34.7187 35.8158 34.8014L36.1471 35.098C36.1944 35.1404 36.2677 35.1327 36.3052 35.0815L36.6382 34.6272C36.7005 34.5422 36.8169 34.5044 36.9094 34.5544C37.0221 34.6153 37.0515 34.759 36.9785 34.8586L36.5967 35.3796L36.115 36.0358C36.0658 36.1028 36.0801 36.197 36.1468 36.2464C36.2135 36.2957 36.3075 36.2814 36.3566 36.2144L37.3068 34.9222ZM45.9005 34.8782C45.8091 34.8108 45.6806 34.8305 45.6133 34.9222L44.6632 36.2144C44.614 36.2814 44.5201 36.2957 44.4533 36.2464C44.3866 36.197 44.3724 36.1028 44.4215 36.0358L44.9032 35.3796L45.285 34.8586C45.358 34.759 45.3286 34.6153 45.2159 34.5544C45.1234 34.5044 45.007 34.5422 44.9447 34.6272L44.6117 35.0815C44.5742 35.1327 44.5009 35.1404 44.4536 35.098L44.1223 34.8014C44.0306 34.7187 43.8853 34.7341 43.8138 34.8406C43.7551 34.9281 43.7812 35.0481 43.8594 35.1186L44.2247 35.4459C44.2657 35.4827 44.2722 35.5447 44.2396 35.5892L43.8891 36.0675C43.8243 36.1559 43.6926 36.1559 43.6278 36.0675L43.2773 35.5892C43.2447 35.5447 43.2511 35.4827 43.2922 35.4459L43.6574 35.1186C43.7356 35.048 43.7617 34.9281 43.703 34.8406C43.6316 34.7341 43.4862 34.7187 43.3945 34.8014L43.0632 35.098C43.016 35.1404 42.9427 35.1327 42.9051 35.0815L42.5722 34.6272C42.5099 34.5422 42.3935 34.5044 42.3009 34.5544C42.1883 34.6153 42.1588 34.759 42.2318 34.8586L42.6137 35.3796L43.0954 36.0358C43.1445 36.1028 43.1302 36.197 43.0635 36.2464C42.9968 36.2957 42.9028 36.2814 42.8537 36.2144L41.9035 34.9222C41.8363 34.8305 41.7077 34.8108 41.6163 34.8782C41.5249 34.9457 41.5053 35.0747 41.5725 35.1664L42.5802 36.5373C42.6224 36.5949 42.7582 36.6616 42.8784 36.6616H44.6384C44.7587 36.6616 44.8944 36.5949 44.9367 36.5373L45.9443 35.1664C46.0115 35.0747 45.9919 34.9457 45.9005 34.8782ZM37.7503 36.2714C37.6831 36.3631 37.5545 36.3828 37.4631 36.3153C37.3717 36.2479 37.3521 36.1189 37.4193 36.0272L38.427 34.6563C38.4692 34.5987 38.6049 34.532 38.7252 34.532H40.4852C40.6055 34.532 40.7412 34.5987 40.7834 34.6563L41.7911 36.0272C41.8583 36.1189 41.8387 36.2479 41.7473 36.3153C41.6559 36.3828 41.5273 36.3631 41.4601 36.2714L40.5099 34.9792C40.4608 34.9122 40.3668 34.8979 40.3001 34.9472C40.2334 34.9965 40.2191 35.0908 40.2683 35.1577L40.75 35.814L41.1318 36.3349C41.2048 36.4346 41.1754 36.5782 41.0627 36.6392C40.9701 36.6892 40.8537 36.6514 40.7915 36.5664L40.4585 36.1121C40.421 36.0609 40.3477 36.0532 40.3004 36.0955L39.9691 36.3922C39.8774 36.4749 39.732 36.4595 39.6606 36.353C39.6019 36.2654 39.628 36.1455 39.7062 36.075L40.0715 35.7477C40.1125 35.7109 40.119 35.6489 40.0864 35.6044L39.7358 35.1261C39.671 35.0377 39.5394 35.0377 39.4746 35.1261L39.124 35.6044C39.0914 35.6489 39.0979 35.7109 39.1389 35.7477L39.5042 36.075C39.5824 36.1455 39.6085 36.2654 39.5498 36.353C39.4784 36.4595 39.333 36.4749 39.2413 36.3922L38.91 36.0955C38.8627 36.0532 38.7894 36.0609 38.7519 36.1121L38.4189 36.5664C38.3567 36.6514 38.2403 36.6892 38.1477 36.6392C38.035 36.5782 38.0056 36.4346 38.0786 36.3349L38.4604 35.814L38.9421 35.1577C38.9913 35.0908 38.977 34.9965 38.9103 34.9472C38.8436 34.8979 38.7496 34.9122 38.7005 34.9792L37.7503 36.2714Z" fill="#2457A1"/><path d="M25.1568 26.1178V29.1719L24.4047 28.0605H24.7558L23.8087 26.6608H24.213L22.9922 24.8566L21.7714 26.6608H22.1757L21.2286 28.0605H21.5797L20.8276 29.1719V26.1178L16.9873 31.7933H22.9922H28.9971L25.1568 26.1178Z" fill="white"/><path d="M44.1027 30.3569C44.1027 30.3569 43.6813 32.0676 40.2003 32.0676C36.7194 32.0676 32.1818 29.585 29.1033 29.585C25.5598 29.585 22.9922 31.8065 22.9922 31.8065C22.9922 31.8065 20.4245 29.585 16.881 29.585C13.8025 29.585 9.26495 32.0676 5.784 32.0676C2.30306 32.0676 1.88166 30.3569 1.88166 30.3569L0.0239258 34.0015H45.9604L44.1027 30.3569Z" fill="#169E48"/><path d="M45.9604 43H0L2.38638 40.1477L0 37.2954H45.9604L43.574 40.1477L45.9604 43Z" fill="url(#paint0_linear_15_748)"/><path d="M44.8826 37.7995L43.1892 39.8236L42.918 40.1477L43.1892 40.4719L44.8826 42.4959H1.07773L2.77115 40.4719L3.04233 40.1477L2.77115 39.8236L1.07771 37.7995H44.8826ZM45.9603 37.2954H0L2.38638 40.1477L0 43H45.9604L43.574 40.1477L45.9603 37.2954Z" fill="white"/><path d="M45.4215 37.5475L43.3816 39.9857L43.246 40.1477L43.3816 40.3098L45.4215 42.748H0.538869L2.57877 40.3098L2.71435 40.1477L2.57877 39.9857L0.538869 37.5475H45.4215ZM45.9604 37.2954H0L2.38638 40.1477L0 43H45.9604L43.574 40.1477L45.9604 37.2954Z" fill="#2B2A29"/><path d="M4.80464 39.1762H4.59379V39.0603H5.44588V39.1762H5.23221L5.73486 40.9096H5.92547V41.0255H5.10221V40.9096H5.31011L5.10503 40.1965C5.05879 40.4084 4.9809 40.5981 4.87113 40.7656C4.74013 40.964 4.6014 41.0632 4.45508 41.0632C4.36652 41.0632 4.29526 41.0381 4.2413 40.988C4.17776 40.9282 4.146 40.8423 4.146 40.7304C4.146 40.5838 4.18733 40.4188 4.27025 40.2355C4.33379 40.0966 4.43289 39.9239 4.56781 39.7174C4.62361 39.6344 4.67943 39.5515 4.73536 39.4685C4.7854 39.3836 4.81043 39.3064 4.81043 39.237C4.81043 39.2235 4.80844 39.2033 4.80464 39.1762ZM4.39729 40.539C4.39729 40.5988 4.41176 40.6441 4.44059 40.6749C4.46954 40.7058 4.50511 40.7212 4.54755 40.7212C4.59956 40.7212 4.64187 40.701 4.67462 40.6605C4.73619 40.5814 4.80071 40.484 4.86816 40.3683C4.96064 40.2103 5.01265 40.086 5.02418 39.9953L4.89993 39.4979C4.83823 39.5827 4.77667 39.6667 4.71508 39.7495C4.66307 39.8228 4.62163 39.8883 4.59083 39.9461C4.55232 40.0156 4.51184 40.1101 4.46953 40.2296C4.42132 40.3664 4.39729 40.4696 4.39729 40.539Z" fill="#2B2A29"/><path d="M6.70542 40.2893V40.9096H6.93369V41.0255H6.04971V40.9096H6.27785L6.28079 39.9009V39.2834C6.28079 39.2023 6.35586 39.1424 6.5061 39.1037C6.62164 39.0748 6.76895 39.0603 6.94803 39.0603C7.16379 39.0603 7.33513 39.1135 7.46232 39.2197C7.58167 39.3202 7.6414 39.4507 7.6414 39.611C7.6414 39.7636 7.59773 39.8907 7.5104 39.9922C7.42295 40.0936 7.31305 40.1443 7.18058 40.1443C7.12686 40.1443 7.07791 40.1347 7.03377 40.1154C6.99918 40.0961 6.97318 40.0815 6.95601 40.0718L6.89554 40.0429L6.70542 40.2893ZM6.70542 40.124L6.88046 39.9009C6.91492 39.9318 6.94841 39.9473 6.98104 39.9473C7.04028 39.9473 7.08481 39.9159 7.11449 39.853C7.14417 39.7903 7.15901 39.7077 7.15901 39.6053C7.15901 39.47 7.14552 39.3704 7.11878 39.3067C7.08247 39.2197 7.01918 39.1762 6.92928 39.1762C6.826 39.1762 6.75903 39.24 6.72837 39.3675C6.71304 39.4312 6.70544 39.5599 6.70544 39.7531L6.70542 40.124Z" fill="#2B2A29"/><path d="M8.84024 39.8168L9.467 40.9096H9.70103V41.0255H8.72175V40.9096H8.98178L8.55457 40.1827L8.39438 40.4888C8.37144 40.5311 8.34568 40.593 8.31698 40.6746C8.28828 40.7563 8.27393 40.8126 8.27393 40.8434C8.27393 40.8664 8.28595 40.8831 8.31011 40.8937C8.33415 40.9043 8.36359 40.9096 8.39818 40.9096H8.46749V41.0255H7.80307V40.9066C7.82233 40.9086 7.83581 40.9096 7.84355 40.9096C7.94179 40.9096 8.02361 40.8682 8.08911 40.7856C8.12959 40.7357 8.18833 40.627 8.26536 40.4599L8.30289 40.3791L8.46749 40.0371L7.98803 39.2138H7.80601V39.0979H8.66399V39.2138H8.45891L8.74776 39.6834C8.83252 39.4999 8.90857 39.3646 8.97603 39.2776C9.08765 39.1328 9.20797 39.0603 9.33712 39.0603C9.38324 39.0603 9.43966 39.0694 9.50602 39.0877C9.5725 39.1062 9.60573 39.125 9.60573 39.1443C9.60573 39.1521 9.598 39.1718 9.58267 39.2038C9.56722 39.2356 9.5498 39.267 9.53066 39.2979L9.50466 39.4429C9.50649 39.466 9.50368 39.4892 9.49596 39.5124C9.49019 39.5124 9.47768 39.5129 9.45843 39.5139C9.43917 39.5149 9.42568 39.5153 9.41795 39.5153C9.3852 39.5153 9.3457 39.4989 9.29946 39.466C9.25334 39.4332 9.21862 39.4168 9.19557 39.4168C9.1416 39.4168 9.08959 39.4409 9.03955 39.4892C8.97786 39.5491 8.91138 39.6584 8.84024 39.8168Z" fill="#2B2A29"/><path d="M11.1049 39.6945L10.4983 40.4348V40.9096H10.6889V41.0255H9.8454V40.9096H10.0737V39.2139H9.8454V39.0979H10.6889V39.2139H10.4983V40.2516L11.1049 39.5067V39.2139H10.9172V39.0979H11.7578V39.2139H11.5296V40.9096H11.7578V41.0255H10.9172V40.9096H11.1049V39.6945Z" fill="#2B2A29"/><path d="M12.168 40.9096L12.1652 39.6951C12.1652 39.4342 12.2123 39.2631 12.3067 39.182C12.401 39.1008 12.6013 39.0603 12.9076 39.0603C13.0828 39.0603 13.2243 39.1058 13.3322 39.197C13.4304 39.2805 13.4796 39.3832 13.4796 39.5053C13.4796 39.6353 13.4228 39.739 13.3091 39.8166C13.2225 39.8747 13.1396 39.9037 13.0607 39.9037C13.0472 39.9057 13.0327 39.9071 13.0173 39.9081C13.0019 39.9091 12.9914 39.9095 12.9855 39.9095C12.9452 39.9095 12.9008 39.8951 12.8527 39.866L12.6794 39.9559C12.7622 40.0216 12.845 40.0718 12.9277 40.1067C12.9547 40.1182 12.9899 40.1294 13.0332 40.14C13.0765 40.1506 13.1203 40.1608 13.1647 40.1704C13.2493 40.1878 13.2966 40.1985 13.3063 40.2023C13.3851 40.2293 13.4363 40.268 13.4593 40.3182C13.4728 40.3473 13.4796 40.3897 13.4796 40.4458V40.8777C13.4796 40.9202 13.4535 40.9575 13.4014 40.9893C13.3493 41.0212 13.2962 41.0371 13.2422 41.0371L11.9399 41.0255V40.9096H12.168ZM12.5926 39.9124L12.7787 39.7762C12.7941 39.7859 12.8117 39.7907 12.8311 39.7907C12.8582 39.7907 12.8848 39.7858 12.9109 39.7762C12.9372 39.7665 12.9541 39.7577 12.9618 39.75C13.0006 39.7073 13.0219 39.6829 13.0258 39.6771C13.0452 39.6364 13.0549 39.5635 13.0549 39.4587C13.0549 39.3616 13.0342 39.2903 12.9927 39.2446C12.9513 39.199 12.8989 39.1762 12.8354 39.1762C12.7351 39.1762 12.6668 39.239 12.6303 39.3646C12.6051 39.4477 12.5926 39.5732 12.5926 39.7414V39.9124ZM12.5926 40.9096H12.9328C12.9792 40.9096 13.0113 40.898 13.0287 40.8747C13.0461 40.8516 13.0549 40.8014 13.0549 40.7241V40.414C13.0549 40.3733 13.049 40.3439 13.0374 40.3255C13.0257 40.3071 12.9919 40.2825 12.9357 40.2516C12.8408 40.2014 12.7758 40.1646 12.7409 40.1415C12.6847 40.1048 12.6353 40.0603 12.5926 40.0081V40.9096Z" fill="#2B2A29"/><path d="M14.4067 40.0196V40.9096H14.5974V41.0255H13.7539V40.9096H13.9821V39.2139H13.7539V39.0979H14.5974V39.2139H14.4067V39.8863H15.0133V39.2139H14.8285V39.0979H15.6662V39.2139H15.438V40.9096H15.6662V41.0255H14.8285V40.9096H15.0133V40.0196H14.4067Z" fill="#2B2A29"/><path d="M16.53 39.1762H16.3191V39.0603H17.1714V39.1762H16.9576L17.4602 40.9096H17.651V41.0255H16.8276V40.9096H17.0356L16.8305 40.1965C16.7843 40.4084 16.7062 40.5981 16.5965 40.7656C16.4655 40.964 16.3269 41.0632 16.1806 41.0632C16.0919 41.0632 16.0206 41.0381 15.9668 40.988C15.9032 40.9282 15.8715 40.8423 15.8715 40.7304C15.8715 40.5838 15.9128 40.4188 15.9956 40.2355C16.0591 40.0966 16.1584 39.9239 16.2932 39.7174C16.349 39.6344 16.4049 39.5515 16.4607 39.4685C16.5107 39.3836 16.5358 39.3064 16.5358 39.237C16.5358 39.2235 16.5339 39.2033 16.53 39.1762ZM16.1228 40.539C16.1228 40.5988 16.1371 40.6441 16.1661 40.6749C16.1949 40.7058 16.2306 40.7212 16.2729 40.7212C16.3249 40.7212 16.3672 40.701 16.4001 40.6605C16.4617 40.5814 16.5262 40.484 16.5936 40.3683C16.686 40.2103 16.738 40.086 16.7495 39.9953L16.6254 39.4979C16.5637 39.5827 16.5021 39.6667 16.4404 39.7495C16.3884 39.8228 16.3471 39.8883 16.3163 39.9461C16.2777 40.0156 16.2373 40.1101 16.1949 40.2296C16.1468 40.3664 16.1228 40.4696 16.1228 40.539Z" fill="#2B2A29"/><path d="M19.5371 39.0979V39.2139H19.309V40.9096H19.5371V41.0255H18.7514V40.9096H18.8843V40.066C18.7244 40.066 18.5954 40.124 18.4972 40.2399C18.3758 40.3849 18.3152 40.6082 18.3152 40.9096H18.4221V41.0255H17.7143V40.9096H17.8414C17.8414 40.6217 17.9329 40.3984 18.1159 40.2399C18.2738 40.1028 18.4673 40.0342 18.6965 40.0342V39.9935C18.4153 39.9569 18.2035 39.8718 18.061 39.7385C17.9397 39.6246 17.8791 39.4931 17.8791 39.3443C17.8791 39.2342 17.9175 39.1627 17.9946 39.1298C18.0446 39.1085 18.1467 39.0979 18.3007 39.0979L19.5371 39.0979ZM18.8843 39.8632V39.2139H18.5723C18.4991 39.2139 18.4456 39.2279 18.412 39.256C18.3783 39.2839 18.3615 39.326 18.3615 39.382C18.3615 39.5037 18.411 39.6144 18.5102 39.7139C18.6094 39.8135 18.7341 39.8632 18.8843 39.8632Z" fill="#2B2A29"/><path d="M22.1544 39.782H21.4351V39.6661H21.5536C21.5536 39.4844 21.5216 39.3529 21.4578 39.2718C21.4075 39.2081 21.3408 39.1762 21.2575 39.1762C21.1666 39.1762 21.093 39.2149 21.0369 39.2922C20.9635 39.3945 20.9267 39.5531 20.9267 39.7675C20.9267 39.8758 20.9344 39.9792 20.9497 40.0776C20.9652 40.1762 20.9917 40.3028 21.0292 40.4574C21.0668 40.612 21.0855 40.7405 21.0855 40.8429C21.0855 40.8662 21.0832 40.8874 21.0783 40.9066C21.0735 40.9261 21.0692 40.9434 21.0654 40.9588L21.0538 40.9995C21.0654 41.0092 21.0865 41.014 21.1173 41.014C21.2213 41.014 21.32 40.9441 21.4135 40.8044C21.5068 40.6648 21.5536 40.5105 21.5536 40.3417V40.269H21.4351V40.1531H22.1544V40.269H22.0417C22.0417 40.496 21.9387 40.6918 21.7326 40.8566C21.542 41.0098 21.335 41.0865 21.1115 41.0865C21.0577 41.0865 21.0187 41.084 20.9945 41.0792C20.9705 41.0743 20.9421 41.0652 20.9094 41.0516V41.014C20.9094 40.956 20.8954 40.9009 20.8674 40.8487C20.8395 40.7965 20.7726 40.7019 20.6667 40.5646C20.5723 40.4449 20.5088 40.3328 20.476 40.2284C20.4548 40.1608 20.4443 40.0796 20.4443 39.985V39.9125C20.4443 39.6555 20.5281 39.4467 20.6956 39.2864C20.8535 39.1356 21.05 39.0603 21.2848 39.0603C21.5391 39.0603 21.7336 39.1366 21.8684 39.2892C21.957 39.3898 22.0148 39.5153 22.0417 39.6661H22.1545L22.1544 39.782Z" fill="#2B2A29"/><path d="M23.2058 40.9096H23.3851C23.3196 40.7106 23.2588 40.4863 23.203 40.2371C23.1741 40.1076 23.1413 39.9433 23.1048 39.7443L23.0585 39.5153C23.0297 39.5481 23.0037 39.5835 22.9805 39.6211C22.9575 39.6588 22.9315 39.7055 22.9025 39.7615C22.8275 39.8968 22.7735 40.0199 22.7407 40.1309C22.708 40.242 22.6917 40.34 22.6917 40.4249C22.6917 40.5466 22.6974 40.6229 22.709 40.6538C22.7206 40.6847 22.7379 40.7001 22.761 40.7001C22.788 40.7001 22.8063 40.7098 22.8159 40.7292C22.8332 40.7658 22.8419 40.8509 22.8419 40.9842C22.8419 41.0132 22.8313 41.032 22.8102 41.0408C22.789 41.0494 22.7668 41.0538 22.7437 41.0538C22.7282 41.0538 22.711 41.0523 22.6917 41.0496C22.6724 41.0469 22.657 41.0446 22.6454 41.0427C22.6339 41.0409 22.6199 41.04 22.6036 41.04H22.5674C22.5328 41.04 22.5059 41.0423 22.4866 41.0469C22.4673 41.0515 22.4509 41.0538 22.4374 41.0538C22.4104 41.0538 22.3879 41.0469 22.3696 41.0334C22.3513 41.0199 22.3401 40.9938 22.3364 40.955V40.8562C22.3364 40.7534 22.3527 40.6522 22.3855 40.5524C22.4182 40.4526 22.4876 40.299 22.5934 40.0916L22.7755 39.74C22.841 39.6179 22.8785 39.5462 22.8882 39.5249C22.942 39.4105 22.969 39.3302 22.969 39.2836C22.969 39.2526 22.9618 39.2333 22.9473 39.2256C22.9329 39.2178 22.9093 39.2139 22.8765 39.2139H22.6889V39.0979H23.593V39.2139H23.4254C23.4582 39.4515 23.5054 39.7086 23.567 39.9849C23.6209 40.2246 23.6854 40.47 23.7605 40.7212C23.7682 40.7463 23.7774 40.7786 23.788 40.8183C23.7985 40.8579 23.8068 40.8883 23.8125 40.9096H24.0118V41.0255H23.2059L23.2058 40.9096Z" fill="#2B2A29"/><path d="M25.2279 41.0255H25.0836L25.072 41.2371V41.3618C25.072 41.4293 25.0744 41.4792 25.0792 41.5111C25.0839 41.543 25.0922 41.5879 25.1038 41.6458C25.1076 41.6613 25.1096 41.6739 25.1096 41.6835V41.7125L24.8467 41.7328C24.8467 41.6574 24.8505 41.5709 24.8583 41.4734C24.8659 41.3758 24.8755 41.2864 24.8871 41.2052L24.9073 41.0255H24.6589L24.2227 39.2139H24.1101V39.0979H24.8467V39.2139H24.6589L25.0026 40.6806C25.0796 40.3192 25.1481 40.0236 25.2078 39.7936C25.2444 39.6467 25.279 39.5222 25.3117 39.4197C25.3444 39.3173 25.3801 39.24 25.4187 39.1878C25.4822 39.1027 25.564 39.0603 25.6642 39.0603C25.7046 39.0603 25.7498 39.0671 25.8 39.0806C25.85 39.0941 25.8828 39.1125 25.8981 39.1356C25.8963 39.153 25.8886 39.181 25.8751 39.2197C25.8616 39.2467 25.8524 39.2776 25.8476 39.3125C25.8428 39.3472 25.8403 39.4149 25.8403 39.5153H25.8L25.7508 39.4892C25.722 39.4718 25.7046 39.4622 25.6988 39.4603C25.6795 39.4525 25.6593 39.4487 25.6382 39.4487C25.5515 39.4487 25.4745 39.5182 25.4071 39.6573C25.3551 39.7637 25.3069 39.9125 25.2626 40.1037C25.2357 40.2371 25.2087 40.3696 25.1818 40.5009C25.1624 40.5897 25.1486 40.6564 25.1399 40.7009C25.1312 40.7454 25.1143 40.815 25.0893 40.9096H25.2279L25.2279 41.0255Z" fill="#2B2A29"/><path d="M26.9324 39.0979H27.6574V39.2139H27.5072V39.9356H27.5274C27.5963 39.7985 27.6368 39.7172 27.6493 39.6921C27.6618 39.667 27.6795 39.6284 27.7025 39.5762C27.7847 39.4043 27.847 39.2912 27.889 39.237C27.979 39.1192 28.0852 39.0603 28.2076 39.0603C28.2535 39.0603 28.2937 39.0636 28.3283 39.0704C28.3626 39.0771 28.4009 39.0902 28.4431 39.1095L28.42 39.1848C28.4031 39.2274 28.3923 39.2593 28.3872 39.2806C28.3823 39.3019 28.3796 39.3424 28.3796 39.4023L28.3739 39.4864H28.319L28.2295 39.4515C28.2101 39.4419 28.1895 39.4337 28.1674 39.4269C28.1451 39.4202 28.1178 39.4168 28.085 39.4168C28.0138 39.4168 27.9474 39.455 27.8858 39.5313C27.824 39.6076 27.7413 39.7569 27.6373 39.9792C27.8355 40.0081 27.9984 40.0758 28.1255 40.182C28.322 40.3463 28.4201 40.5889 28.4201 40.9096H28.5847V41.0255H27.8078V40.9096H27.9348C27.9348 40.6158 27.8895 40.3955 27.7989 40.2487C27.7239 40.127 27.6267 40.0612 27.5073 40.0516V40.9096H27.6488V41.0255H26.944V40.9096H27.0826V40.0516C26.9632 40.0516 26.8659 40.1144 26.7909 40.2399C26.7003 40.3907 26.6551 40.614 26.6551 40.9096H26.7821V41.0255H26.0022V40.9096H26.1697C26.1697 40.5907 26.268 40.3492 26.4643 40.1849C26.5934 40.0767 26.7561 40.0081 26.9526 39.9792C26.8524 39.7627 26.7701 39.6149 26.7056 39.5356C26.6411 39.4565 26.5741 39.4168 26.5048 39.4168C26.4701 39.4168 26.4456 39.4187 26.4312 39.4226C26.4168 39.4264 26.3931 39.4362 26.3603 39.4515L26.2737 39.4864H26.2188L26.213 39.4023C26.213 39.3346 26.2103 39.2902 26.2049 39.2689C26.1904 39.2381 26.1788 39.2101 26.1697 39.1848L26.1409 39.1095C26.1774 39.0922 26.2169 39.0796 26.2592 39.0719C26.3016 39.0641 26.342 39.0603 26.3805 39.0603C26.502 39.0603 26.6078 39.1183 26.6984 39.2342C26.7369 39.2826 26.8004 39.3965 26.8891 39.5762C26.9102 39.6226 26.9281 39.6613 26.9426 39.6922C26.957 39.723 26.9978 39.8043 27.0652 39.9356H27.0826V39.2139H26.9324L26.9324 39.0979Z" fill="#2B2A29"/><path d="M28.7667 39.0979C28.9516 39.0999 29.1422 39.1014 29.3387 39.1022C29.5351 39.1032 29.6651 39.1037 29.7286 39.1037C29.7402 39.1037 29.7864 39.1014 29.8674 39.0965C29.9482 39.0917 30.0417 39.0892 30.1475 39.0892C30.2053 39.0892 30.2342 39.1211 30.2342 39.1848C30.2342 39.2043 30.2293 39.2245 30.2198 39.2457C30.2101 39.267 30.1995 39.2902 30.188 39.3153C30.1649 39.3733 30.1495 39.4371 30.1418 39.5067C30.134 39.5762 30.1283 39.6188 30.1245 39.6342C30.1129 39.6748 30.0897 39.6951 30.0552 39.6951C30.0262 39.6951 30.006 39.6834 29.9944 39.6603C29.9905 39.6525 29.9819 39.6246 29.9684 39.5762C29.9261 39.4236 29.8682 39.3202 29.7951 39.2661C29.7469 39.2312 29.6776 39.2139 29.5871 39.2139H29.4196V39.9037C29.4754 39.9579 29.5188 39.9922 29.5496 40.0066C29.5804 40.0211 29.6429 40.0409 29.7374 40.066C29.8702 40.0951 30.004 40.124 30.1389 40.153C30.2468 40.1937 30.3007 40.3106 30.3007 40.5038V40.8487C30.3007 40.9086 30.2833 40.9545 30.2487 40.9864C30.214 41.0183 30.1697 41.0343 30.1158 41.0343L28.7667 41.0255V40.9096H28.9949V39.2139H28.7667L28.7667 39.0979ZM29.4196 40.9096C29.4559 40.9135 29.4961 40.9164 29.5401 40.9183C29.5842 40.9202 29.6282 40.9212 29.6722 40.9212C29.7201 40.9212 29.7516 40.9183 29.7669 40.9124C29.8148 40.8912 29.8425 40.8757 29.8502 40.8661C29.8674 40.8449 29.876 40.7975 29.876 40.7241V40.414C29.876 40.3733 29.8702 40.3439 29.8588 40.3255C29.8473 40.3071 29.8138 40.2825 29.7583 40.2516C29.6587 40.1975 29.5947 40.1608 29.566 40.1415C29.5124 40.1048 29.4636 40.0603 29.4196 40.0081L29.4196 40.9096Z" fill="#2B2A29"/><path d="M31.1673 39.1762H30.9563V39.0603H31.8085V39.1762H31.5947L32.0974 40.9096H32.2881V41.0255H31.4647V40.9096H31.6727L31.4677 40.1965C31.4214 40.4084 31.3434 40.5981 31.2336 40.7656C31.1026 40.964 30.964 41.0632 30.8177 41.0632C30.729 41.0632 30.6578 41.0381 30.6039 40.988C30.5404 40.9282 30.5086 40.8423 30.5086 40.7304C30.5086 40.5838 30.55 40.4188 30.6329 40.2355C30.6964 40.0966 30.7955 39.9239 30.9303 39.7174C30.9863 39.6344 31.0421 39.5515 31.0979 39.4685C31.1479 39.3836 31.1731 39.3064 31.1731 39.237C31.1731 39.2235 31.1711 39.2033 31.1673 39.1762ZM30.7599 40.539C30.7599 40.5988 30.7744 40.6441 30.8032 40.6749C30.8322 40.7058 30.8677 40.7212 30.9101 40.7212C30.9621 40.7212 31.0045 40.701 31.0373 40.6605C31.0988 40.5814 31.1633 40.484 31.2308 40.3683C31.3232 40.2103 31.3752 40.086 31.3868 39.9953L31.2626 39.4979C31.2009 39.5827 31.1393 39.6667 31.0777 39.7495C31.0257 39.8228 30.9843 39.8883 30.9535 39.9461C30.915 40.0156 30.8745 40.1101 30.8322 40.2296C30.784 40.3664 30.7599 40.4696 30.7599 40.539Z" fill="#2B2A29"/><path d="M33.747 39.924H34.1166C34.1359 39.7864 34.2004 39.6468 34.3102 39.5053C34.395 39.3948 34.5018 39.2882 34.6309 39.1854C34.6443 39.1757 34.6665 39.1582 34.6973 39.133C34.7147 39.1176 34.732 39.1006 34.7493 39.0822C34.7666 39.0637 34.785 39.0487 34.8043 39.0371C34.8234 39.0254 34.8466 39.0197 34.8736 39.0197C34.8909 39.0197 34.9121 39.0332 34.9371 39.0603C34.9525 39.0797 34.9689 39.0981 34.9862 39.1154C35.0286 39.158 35.0617 39.1905 35.0859 39.2126C35.1099 39.2349 35.1644 39.2828 35.2491 39.3564C35.4012 39.4899 35.5023 39.6128 35.5524 39.725C35.5948 39.8179 35.616 39.9254 35.616 40.0472C35.616 40.1769 35.591 40.294 35.5408 40.3985C35.4985 40.4855 35.431 40.5784 35.3387 40.6771C35.329 40.6868 35.2299 40.7826 35.0411 40.9645C34.9544 41.0535 34.8938 41.098 34.8591 41.098C34.8379 41.098 34.809 41.085 34.7725 41.0589C34.7358 41.0328 34.6636 40.9724 34.5558 40.8777C34.4152 40.7578 34.3179 40.6632 34.264 40.5937C34.1504 40.4468 34.0936 40.2873 34.0936 40.1154V40.04H33.747V40.9096H33.9751V41.0255H33.0941V40.9096H33.3222V39.2139H33.0941V39.0979H33.9751V39.2139H33.747L33.747 39.924ZM34.6915 39.3878C34.5933 39.3993 34.5134 39.4462 34.4517 39.5283C34.3902 39.6105 34.3594 39.6979 34.3594 39.7907C34.3594 39.8584 34.3814 39.9317 34.4257 40.011C34.4912 40.1289 34.6068 40.267 34.7725 40.4255C34.9091 40.5608 34.9852 40.669 35.0006 40.7502C35.0854 40.7134 35.1566 40.6652 35.2144 40.6052C35.2856 40.5317 35.3271 40.4516 35.3386 40.3646C35.3424 40.3453 35.3444 40.3299 35.3444 40.3182C35.3444 40.3066 35.3424 40.2912 35.3386 40.2718C35.3271 40.1927 35.2682 40.0903 35.1624 39.9646C35.1239 39.9202 35.0613 39.8497 34.9746 39.753C34.8687 39.6371 34.8128 39.5752 34.8071 39.5674C34.7455 39.4979 34.707 39.4381 34.6915 39.3878Z" fill="#2B2A29"/><path d="M35.8354 39.0979H36.8667C36.9091 39.0979 36.9529 39.0965 36.9982 39.0936C37.0434 39.0907 37.0867 39.0869 37.1282 39.0819C37.1695 39.0771 37.2013 39.0723 37.2235 39.0675C37.2456 39.0627 37.2615 39.0603 37.2712 39.0603C37.302 39.0603 37.3246 39.0704 37.339 39.0907C37.3535 39.111 37.3608 39.1366 37.3608 39.1675C37.3608 39.1868 37.3535 39.2139 37.339 39.2487C37.3246 39.2834 37.314 39.31 37.3073 39.3283C37.3005 39.3468 37.2923 39.3742 37.2827 39.411C37.2731 39.4477 37.2655 39.4903 37.2597 39.5385C37.2538 39.5868 37.249 39.6188 37.2452 39.6341C37.2337 39.6748 37.2105 39.6951 37.1759 39.6951C37.147 39.6951 37.1267 39.6834 37.1152 39.6602C37.1113 39.6525 37.1027 39.6245 37.0892 39.5762C37.0468 39.4236 36.989 39.3202 36.9159 39.266C36.8677 39.2312 36.7984 39.2138 36.7079 39.2138H36.4883V40.9096H36.7166V41.0255H35.8354V40.9096H36.0637V39.2138H35.8354L35.8354 39.0979Z" fill="#2B2A29"/><path d="M38.1466 40.2893V40.9096H38.3747V41.0255H37.4908V40.9096H37.719L37.722 39.9009V39.2834C37.722 39.2023 37.797 39.1424 37.9473 39.1037C38.0628 39.0748 38.2101 39.0603 38.3892 39.0603C38.6048 39.0603 38.7763 39.1135 38.9034 39.2197C39.0229 39.3202 39.0826 39.4507 39.0826 39.611C39.0826 39.7636 39.0388 39.8907 38.9515 39.9922C38.8641 40.0936 38.7542 40.1443 38.6218 40.1443C38.5679 40.1443 38.519 40.1347 38.475 40.1154C38.4404 40.0961 38.4144 40.0815 38.3971 40.0718L38.3366 40.0429L38.1466 40.2893ZM38.1466 40.124L38.3216 39.9009C38.3561 39.9318 38.3896 39.9473 38.4221 39.9473C38.4815 39.9473 38.526 39.9159 38.5557 39.853C38.5852 39.7903 38.6001 39.7077 38.6001 39.6053C38.6001 39.47 38.5867 39.3704 38.56 39.3067C38.5235 39.2197 38.4604 39.1762 38.3705 39.1762C38.2671 39.1762 38.2002 39.24 38.1696 39.3675C38.1542 39.4312 38.1466 39.5599 38.1466 39.7531L38.1466 40.124Z" fill="#2B2A29"/><path d="M40.1918 39.0979V39.2139H39.9635V39.8921C40.0348 39.9598 40.1388 40.0168 40.2755 40.0632C40.3891 40.1018 40.4835 40.1212 40.5586 40.1212L40.6712 40.1182C40.6829 40.1164 40.6992 40.1154 40.7204 40.1154C40.7704 40.1154 40.8032 40.1309 40.8186 40.1618C40.834 40.1927 40.8417 40.2371 40.8417 40.2951V40.8343C40.8417 40.9173 40.8297 40.97 40.8056 40.9922C40.7815 41.0144 40.7377 41.0255 40.6742 41.0255H39.3106V40.9096H39.5389V39.2138H39.3106V39.0979L40.1918 39.0979ZM39.9635 40.9096H40.212C40.2736 40.9096 40.3169 40.9038 40.3419 40.8922C40.392 40.869 40.4171 40.8236 40.4171 40.756V40.3618C40.4171 40.3174 40.4102 40.2863 40.3967 40.269C40.3831 40.2516 40.3463 40.2333 40.2862 40.2138C40.2261 40.1946 40.1709 40.1724 40.1205 40.1473C40.0604 40.1164 40.008 40.0825 39.9635 40.0457V40.9096ZM41.1768 40.9096V39.2139H40.9485V39.0979H41.8297V39.2139H41.6014V40.9096H41.8297V41.0255H40.9485V40.9096H41.1768Z" fill="#2B2A29"/><path d="M16.9748 13.6755L13.4634 9.28333L15.2131 6.9726L18.7245 11.3648L16.9748 13.6755Z" fill="url(#paint1_linear_15_748)"/><path d="M22.4206 5.11963L20.8156 3L19.5217 4.6185L18.2277 3L16.478 5.31074L19.9895 9.70296L21.7392 7.39222L21.1714 6.68211L22.4206 5.11963Z" fill="url(#paint2_linear_15_748)"/><path d="M28.882 13.6755L32.3934 9.28333L30.6437 6.9726L27.1323 11.3648L28.882 13.6755Z" fill="url(#paint3_linear_15_748)"/><path d="M23.4365 5.11963L25.0415 3L26.3354 4.6185L27.6294 3L29.3791 5.31074L25.8677 9.70296L24.118 7.39222L24.6857 6.68211L23.4365 5.11963Z" fill="url(#paint4_linear_15_748)"/><path d="M22.939 5.71301V14.3858L34.6497 29.1787C34.6502 29.1791 36.2261 30.4014 38.4865 30.4014C38.6826 30.4014 38.8676 30.3984 39.0441 30.3933C41.3797 30.3262 42.0461 29.849 42.0461 29.849L22.939 5.71301Z" fill="url(#paint5_linear_15_748)"/><path d="M3.83203 29.849C3.83203 29.849 4.49835 30.3262 6.83398 30.3933C7.01051 30.3984 7.19552 30.4014 7.39155 30.4014C9.65198 30.4014 11.2279 29.1791 11.2284 29.1787L22.9391 14.3858V5.71301L3.83203 29.849Z" fill="url(#paint6_linear_15_748)"/><path d="M13.7276 21.6853L6.83398 30.3933C7.01051 30.3984 7.19552 30.4013 7.39155 30.4013C9.65198 30.4013 11.2279 29.179 11.2284 29.1786L15.7499 23.4671H30.1284L32.1507 21.6853H13.7276Z" fill="url(#paint7_linear_15_748)"/><path d="M32.1506 21.6853L22.9391 10.0494V14.3858L27.3071 19.9035H18.571L13.7275 21.6853H32.1506Z" fill="url(#paint8_linear_15_748)"/><path d="M18.571 19.9035L22.9391 14.3858V10.0494L13.7275 21.6853L18.571 19.9035Z" fill="url(#paint9_linear_15_748)"/><path d="M32.1507 21.6853L30.1284 23.4671L34.6499 29.1786C34.6504 29.179 36.2263 30.4013 38.4868 30.4013C38.6828 30.4013 38.8678 30.3984 39.0443 30.3933L32.1507 21.6853Z" fill="url(#paint10_linear_15_748)"/></g><path d="M59.1284 5.94H60.6644C60.7444 5.372 61.0124 4.796 61.4684 4.212C61.8204 3.756 62.2644 3.316 62.8004 2.892C62.8564 2.852 62.9484 2.78 63.0764 2.676C63.1484 2.612 63.2204 2.544 63.2924 2.472C63.3644 2.392 63.4404 2.328 63.5204 2.28C63.6004 2.232 63.6964 2.208 63.8084 2.208C63.8804 2.208 63.9684 2.264 64.0724 2.376C64.1364 2.456 64.2044 2.532 64.2764 2.604C64.4524 2.78 64.5884 2.916 64.6844 3.012C64.7884 3.1 65.0164 3.296 65.3684 3.6C66.0004 4.152 66.4204 4.66 66.6284 5.124C66.8044 5.508 66.8924 5.952 66.8924 6.456C66.8924 6.992 66.7884 7.476 66.5804 7.908C66.4044 8.268 66.1244 8.652 65.7404 9.06C65.7004 9.1 65.2884 9.496 64.5044 10.248C64.1444 10.616 63.8924 10.8 63.7484 10.8C63.6604 10.8 63.5404 10.744 63.3884 10.632C63.2364 10.528 62.9364 10.28 62.4884 9.888C61.9044 9.392 61.5004 9 61.2764 8.712C60.8044 8.104 60.5684 7.444 60.5684 6.732C60.5684 6.596 60.5724 6.492 60.5804 6.42H59.1284V10.02H60.0764V10.5H56.4164V10.02H57.3644V3H56.4164V2.52H60.0764V3H59.1284V5.94ZM63.0524 3.72C62.6444 3.768 62.3124 3.964 62.0564 4.308C61.8004 4.644 61.6724 5.004 61.6724 5.388C61.6724 5.668 61.7644 5.972 61.9484 6.3C62.2204 6.788 62.7004 7.36 63.3884 8.016C63.9564 8.576 64.2724 9.024 64.3364 9.36C64.6884 9.208 64.9844 9.008 65.2244 8.76C65.5204 8.456 65.6924 8.124 65.7404 7.764C65.7564 7.684 65.7644 7.62 65.7644 7.572C65.7644 7.524 65.7564 7.46 65.7404 7.38C65.6924 7.052 65.4484 6.628 65.0084 6.108C64.8484 5.924 64.5884 5.632 64.2284 5.232C63.7884 4.752 63.5564 4.496 63.5324 4.464C63.2764 4.176 63.1164 3.928 63.0524 3.72ZM67.8073 2.52H72.0913C72.2673 2.52 72.4473 2.516 72.6313 2.508C72.8233 2.492 73.0033 2.476 73.1713 2.46C73.3473 2.436 73.4793 2.416 73.5673 2.4C73.6633 2.376 73.7313 2.364 73.7713 2.364C73.8993 2.364 73.9913 2.408 74.0473 2.496C74.1113 2.576 74.1433 2.68 74.1433 2.808C74.1433 2.888 74.1113 3 74.0473 3.144C73.9913 3.288 73.9473 3.4 73.9153 3.48C73.8913 3.552 73.8593 3.664 73.8193 3.816C73.7793 3.968 73.7473 4.144 73.7233 4.344C73.6993 4.544 73.6793 4.676 73.6633 4.74C73.6153 4.908 73.5193 4.992 73.3753 4.992C73.2553 4.992 73.1713 4.944 73.1233 4.848C73.1073 4.816 73.0713 4.7 73.0153 4.5C72.8393 3.868 72.5993 3.44 72.2953 3.216C72.0953 3.072 71.8073 3 71.4313 3H71.1673H70.5193V10.02H71.4673V10.5H67.8073V10.02H68.7553V3H67.8073V2.52ZM77.9502 2.208C78.0302 2.208 78.1222 2.264 78.2262 2.376C78.2902 2.456 78.3582 2.532 78.4302 2.604C78.6062 2.788 78.7342 2.92 78.8142 3C78.9022 3.072 79.1342 3.272 79.5102 3.6C80.1422 4.152 80.5622 4.66 80.7702 5.124C80.9462 5.508 81.0342 5.952 81.0342 6.456C81.0342 6.992 80.9302 7.476 80.7222 7.908C80.5462 8.268 80.2582 8.652 79.8582 9.06C79.4662 9.46 79.0662 9.856 78.6582 10.248C78.2902 10.616 78.0342 10.8 77.8902 10.8C77.8022 10.8 77.6902 10.752 77.5542 10.656C77.4182 10.56 77.1422 10.336 76.7262 9.984C76.0382 9.384 75.5902 8.948 75.3822 8.676C74.9342 8.076 74.7102 7.396 74.7102 6.636C74.7102 5.828 74.9822 5.052 75.5262 4.308C75.8542 3.86 76.3262 3.388 76.9422 2.892C77.0782 2.788 77.1702 2.716 77.2182 2.676C77.2742 2.628 77.3422 2.564 77.4222 2.484C77.5022 2.396 77.5822 2.328 77.6622 2.28C77.7422 2.232 77.8382 2.208 77.9502 2.208ZM77.1942 3.72C76.7862 3.776 76.4542 3.972 76.1982 4.308C75.9422 4.644 75.8142 5.004 75.8142 5.388C75.8142 5.74 75.9622 6.136 76.2582 6.576C76.5302 6.976 76.9542 7.46 77.5302 8.028C77.8902 8.38 78.1302 8.64 78.2502 8.808C78.3702 8.968 78.4422 9.144 78.4662 9.336C78.8022 9.2 79.1062 8.988 79.3782 8.7C79.6582 8.412 79.8262 8.1 79.8822 7.764C79.8982 7.684 79.9062 7.62 79.9062 7.572C79.9062 7.524 79.8982 7.46 79.8822 7.38C79.8262 7.044 79.5822 6.62 79.1502 6.108C78.8062 5.724 78.5462 5.432 78.3702 5.232C77.9302 4.752 77.6982 4.496 77.6742 4.464C77.4182 4.176 77.2582 3.928 77.1942 3.72ZM84.6638 7.452V10.02H85.6118V10.5H81.9518V10.02H82.8998L82.9118 5.844V3.288C82.9118 2.952 83.2238 2.704 83.8478 2.544C84.3278 2.424 84.9398 2.364 85.6838 2.364C86.5798 2.364 87.2918 2.584 87.8198 3.024C88.3158 3.44 88.5638 3.98 88.5638 4.644C88.5638 5.276 88.3798 5.804 88.0118 6.228C87.6518 6.644 87.1958 6.852 86.6438 6.852C86.4198 6.852 86.2158 6.812 86.0318 6.732C85.8878 6.652 85.7798 6.592 85.7078 6.552L85.4558 6.432L84.6638 7.452ZM84.6638 6.768L85.3958 5.844C85.5398 5.972 85.6798 6.036 85.8158 6.036C86.0638 6.036 86.2478 5.908 86.3678 5.652C86.4958 5.388 86.5598 5.044 86.5598 4.62C86.5598 4.06 86.5038 3.648 86.3918 3.384C86.2398 3.024 85.9758 2.844 85.5998 2.844C85.1678 2.844 84.8878 3.108 84.7598 3.636C84.6958 3.9 84.6638 4.432 84.6638 5.232V6.768ZM96.6504 5.34H93.6624V4.872H94.1424C94.1424 4.12 94.0104 3.576 93.7464 3.24C93.5384 2.976 93.2624 2.844 92.9184 2.844C92.5424 2.844 92.2384 3.004 92.0064 3.324C91.7024 3.748 91.5504 4.404 91.5504 5.292C91.5504 5.74 91.5824 6.168 91.6464 6.576C91.7104 6.984 91.8184 7.508 91.9704 8.148C92.1304 8.788 92.2104 9.32 92.2104 9.744C92.2104 9.84 92.1984 9.928 92.1744 10.008C92.1584 10.088 92.1424 10.16 92.1264 10.224L92.0784 10.392C92.1264 10.432 92.2144 10.452 92.3424 10.452C92.7744 10.452 93.1824 10.164 93.5664 9.588C93.9584 9.012 94.1544 8.376 94.1544 7.68C94.1544 7.544 94.1504 7.444 94.1424 7.38H93.6624V6.9H96.6504V7.38H96.1824C96.1824 8.316 95.7544 9.124 94.8984 9.804C94.1064 10.436 93.2464 10.752 92.3184 10.752C92.0944 10.752 91.9304 10.74 91.8264 10.716C91.7304 10.7 91.6144 10.664 91.4784 10.608V10.452C91.4784 10.212 91.4184 9.984 91.2984 9.768C91.1864 9.552 90.9104 9.16 90.4704 8.592C90.0784 8.096 89.8144 7.632 89.6784 7.2C89.5904 6.92 89.5464 6.584 89.5464 6.192V5.892C89.5464 4.828 89.8944 3.964 90.5904 3.3C91.2464 2.676 92.0624 2.364 93.0384 2.364C94.0944 2.364 94.9024 2.68 95.4624 3.312C95.8304 3.728 96.0704 4.248 96.1824 4.872H96.6504V5.34ZM100.121 6.036H100.541L100.709 5.724L100.889 5.316L101.129 4.824C101.593 3.904 101.889 3.356 102.017 3.18C102.409 2.636 102.869 2.364 103.397 2.364C103.773 2.364 104.105 2.432 104.393 2.568C104.313 2.784 104.233 3 104.153 3.216C104.129 3.296 104.117 3.416 104.117 3.576C104.093 3.768 104.081 3.952 104.081 4.128H103.853L103.481 3.984C103.409 3.944 103.321 3.912 103.217 3.888C103.121 3.856 103.005 3.84 102.869 3.84C102.421 3.84 101.801 4.616 101.009 6.168C102.257 6.448 103.117 6.944 103.589 7.656C103.989 8.256 104.189 9.044 104.189 10.02H104.873V10.5H101.777V10.02H102.221C102.221 8.908 102.105 8.112 101.873 7.632C101.569 7.008 100.985 6.612 100.121 6.444V10.02H100.829V10.5H97.4088V10.02H98.3568V3H97.4088V2.52H100.913V3H100.121V6.036ZM110.832 4.98L108.312 8.052V10.02H109.104V10.5H105.6V10.02H106.548V3H105.6V2.52H109.104V3H108.312V7.296L110.832 4.212V3H110.052V2.52H113.544V3H112.596V10.02H113.544V10.5H110.052V10.02H110.832V4.98ZM119.668 4.98L117.148 8.052V10.02H117.94V10.5H114.436V10.02H115.384V3H114.436V2.52H117.808V3H117.148V7.296L119.668 4.212V3H119.008V2.52H122.38V3H121.432V10.02H122.38V10.5H118.888V10.02H119.668V4.98ZM119.752 0.323999L120.256 0.516C120.072 0.987999 119.812 1.388 119.476 1.716C119.14 2.036 118.788 2.196 118.42 2.196C117.996 2.196 117.632 2.004 117.328 1.62C117.064 1.284 116.892 0.855999 116.812 0.335999L117.256 0.215999C117.352 0.471999 117.472 0.675999 117.616 0.827999C117.816 1.044 118.056 1.152 118.336 1.152C118.704 1.152 119.02 1.06 119.284 0.875999C119.484 0.731999 119.64 0.547999 119.752 0.323999ZM59.1404 21.036H59.5604L59.7284 20.724L59.9084 20.316L60.1484 19.824C60.6124 18.904 60.9084 18.356 61.0364 18.18C61.4284 17.636 61.8884 17.364 62.4164 17.364C62.7924 17.364 63.1244 17.432 63.4124 17.568C63.3324 17.784 63.2524 18 63.1724 18.216C63.1484 18.296 63.1364 18.416 63.1364 18.576C63.1124 18.768 63.1004 18.952 63.1004 19.128H62.8724L62.5004 18.984C62.4284 18.944 62.3404 18.912 62.2364 18.888C62.1404 18.856 62.0244 18.84 61.8884 18.84C61.4404 18.84 60.8204 19.616 60.0284 21.168C61.2764 21.448 62.1364 21.944 62.6084 22.656C63.0084 23.256 63.2084 24.044 63.2084 25.02H63.8924V25.5H60.7964V25.02H61.2404C61.2404 23.908 61.1244 23.112 60.8924 22.632C60.5884 22.008 60.0044 21.612 59.1404 21.444V25.02H59.8484V25.5H56.4284V25.02H57.3764V18H56.4284V17.52H59.9324V18H59.1404V21.036ZM67.3198 17.844H66.4438V17.364H69.9838V17.844H69.0958L71.1838 25.02H71.9758V25.5H68.5558V25.02H69.4198L68.5678 22.068C68.3758 22.948 68.0518 23.736 67.5958 24.432C67.0518 25.256 66.4758 25.668 65.8678 25.668C65.4998 25.668 65.2038 25.564 64.9798 25.356C64.7158 25.108 64.5838 24.752 64.5838 24.288C64.5838 23.68 64.7558 22.996 65.0998 22.236C65.3638 21.66 65.7758 20.944 66.3358 20.088C66.5678 19.744 66.7998 19.4 67.0318 19.056C67.2398 18.704 67.3438 18.384 67.3438 18.096C67.3438 18.04 67.3358 17.956 67.3198 17.844ZM65.6278 23.496C65.6278 23.744 65.6878 23.932 65.8078 24.06C65.9278 24.188 66.0758 24.252 66.2518 24.252C66.4678 24.252 66.6438 24.168 66.7798 24C67.0358 23.672 67.3038 23.268 67.5838 22.788C67.9678 22.132 68.1838 21.616 68.2318 21.24L67.7158 19.176C67.4598 19.528 67.2038 19.876 66.9478 20.22C66.7318 20.524 66.5598 20.796 66.4318 21.036C66.2718 21.324 66.1038 21.716 65.9278 22.212C65.7278 22.78 65.6278 23.208 65.6278 23.496ZM76.1068 25.02H76.8508C76.5788 24.196 76.3268 23.268 76.0948 22.236C75.9748 21.7 75.8388 21.02 75.6868 20.196L75.4948 19.248C75.3748 19.384 75.2668 19.532 75.1708 19.692C75.0748 19.844 74.9668 20.036 74.8468 20.268C74.5348 20.828 74.3108 21.34 74.1748 21.804C74.0388 22.26 73.9708 22.664 73.9708 23.016C73.9708 23.52 73.9948 23.836 74.0428 23.964C74.0908 24.092 74.1628 24.156 74.2588 24.156C74.3708 24.156 74.4468 24.196 74.4868 24.276C74.5588 24.428 74.5948 24.78 74.5948 25.332C74.5948 25.452 74.5508 25.528 74.4628 25.56C74.3748 25.6 74.2828 25.62 74.1868 25.62C74.1228 25.62 74.0508 25.612 73.9708 25.596C73.8908 25.588 73.8268 25.58 73.7788 25.572C73.7308 25.564 73.6708 25.56 73.5988 25.56C73.5348 25.56 73.4868 25.56 73.4548 25.56C73.3108 25.56 73.1988 25.564 73.1188 25.572C73.0388 25.588 72.9708 25.596 72.9148 25.596C72.8028 25.596 72.7068 25.568 72.6268 25.512C72.5548 25.456 72.5108 25.348 72.4948 25.188V24.78C72.4948 24.356 72.5628 23.94 72.6988 23.532C72.8348 23.116 73.1228 22.48 73.5628 21.624L74.3188 20.172C74.5908 19.668 74.7468 19.372 74.7868 19.284C75.0108 18.812 75.1228 18.48 75.1228 18.288C75.1228 18.16 75.0908 18.08 75.0268 18.048C74.9708 18.016 74.8748 18 74.7388 18H73.9588V17.52H77.7148V18H77.0188C77.1548 18.984 77.3508 20.048 77.6068 21.192C77.8308 22.184 78.0988 23.2 78.4108 24.24C78.4428 24.344 78.4788 24.48 78.5188 24.648C78.5668 24.808 78.6028 24.932 78.6268 25.02H79.4548V25.5H76.1068V25.02ZM83.7491 21.504H84.1691C84.1051 21.288 84.0011 21.12 83.8571 21C83.7131 20.88 83.5771 20.82 83.4491 20.82C83.2171 20.82 82.9811 20.868 82.7411 20.964C82.5011 21.052 82.3091 21.18 82.1651 21.348C82.2371 21.796 82.2811 22.064 82.2971 22.152C82.3211 22.24 82.3731 22.408 82.4531 22.656C82.5651 23.024 82.6451 23.34 82.6931 23.604C82.7491 23.86 82.7771 24.16 82.7771 24.504C82.7771 24.648 82.7691 24.752 82.7531 24.816C82.7451 24.88 82.7171 24.976 82.6691 25.104C82.7731 25.16 82.9131 25.188 83.0891 25.188C83.7531 25.188 84.2731 24.992 84.6491 24.6C84.9211 24.32 85.1091 23.944 85.2131 23.472H84.6371V23.004H87.6251V23.472L87.2051 23.484C86.8611 24.108 86.3931 24.62 85.8011 25.02C85.1691 25.452 84.5251 25.668 83.8691 25.668C83.5491 25.668 83.2211 25.648 82.8851 25.608C82.5491 25.576 82.2571 25.524 82.0091 25.452C82.0251 25.324 82.0331 25.228 82.0331 25.164C82.0331 24.884 81.9651 24.612 81.8291 24.348C81.7331 24.164 81.5691 23.928 81.3371 23.64C80.8091 23 80.4691 22.52 80.3171 22.2C80.1731 21.872 80.1011 21.48 80.1011 21.024C80.1011 19.728 80.5411 18.76 81.4211 18.12C82.1171 17.616 82.9771 17.364 84.0011 17.364C84.6331 17.364 85.2011 17.472 85.7051 17.688C86.4091 17.992 86.8931 18.48 87.1571 19.152H87.6971V19.632H84.8771V19.152H85.2371C85.1651 18.808 85.0331 18.528 84.8411 18.312C84.5611 18 84.1891 17.844 83.7251 17.844C83.1651 17.844 82.7411 18.116 82.4531 18.66C82.2131 19.108 82.0931 19.668 82.0931 20.34C82.0931 20.532 82.1051 20.72 82.1291 20.904C82.4251 20.64 82.7291 20.456 83.0411 20.352C83.3531 20.248 83.6851 20.196 84.0371 20.196C84.4931 20.196 84.9131 20.312 85.2971 20.544C85.6891 20.776 85.9611 21.096 86.1131 21.504H86.5811V21.996H83.7491V21.504ZM93.5354 19.98L91.0154 23.052V25.02H91.8074V25.5H88.3034V25.02H89.2514V18H88.3034V17.52H91.6754V18H91.0154V22.296L93.5354 19.212V18H92.8754V17.52H96.2474V18H95.2994V25.02H96.2474V25.5H92.7554V25.02H93.5354V19.98ZM93.6194 15.324L94.1234 15.516C93.9394 15.988 93.6794 16.388 93.3434 16.716C93.0074 17.036 92.6554 17.196 92.2874 17.196C91.8634 17.196 91.4994 17.004 91.1954 16.62C90.9314 16.284 90.7594 15.856 90.6794 15.336L91.1234 15.216C91.2194 15.472 91.3394 15.676 91.4834 15.828C91.6834 16.044 91.9234 16.152 92.2034 16.152C92.5714 16.152 92.8874 16.06 93.1514 15.876C93.3514 15.732 93.5074 15.548 93.6194 15.324ZM102.647 17.52V18H101.999C102.055 18.576 102.183 19.424 102.383 20.544C102.583 21.664 102.795 22.656 103.019 23.52C103.275 24.512 103.483 25.008 103.643 25.008C103.691 25.008 103.751 24.988 103.823 24.948C103.895 24.9 104.007 24.876 104.159 24.876C104.263 24.876 104.343 24.916 104.399 24.996C104.463 25.068 104.495 25.156 104.495 25.26C104.495 25.316 104.487 25.364 104.471 25.404C104.463 25.436 104.419 25.552 104.339 25.752C104.259 25.96 104.179 26.236 104.099 26.58C104.035 26.988 103.999 27.204 103.991 27.228C103.927 27.428 103.819 27.528 103.667 27.528C103.539 27.528 103.451 27.48 103.403 27.384C103.363 27.296 103.335 27.176 103.319 27.024C103.215 26.352 102.959 25.908 102.551 25.692C102.311 25.564 101.923 25.5 101.387 25.5H100.211C99.4113 25.5 98.8793 25.58 98.6153 25.74C98.3513 25.9 98.1553 26.24 98.0273 26.76C97.9793 26.92 97.9353 27.084 97.8953 27.252C97.8153 27.436 97.7073 27.528 97.5713 27.528C97.4513 27.528 97.3633 27.46 97.3073 27.324C97.2833 27.268 97.2593 27.14 97.2353 26.94C97.2113 26.748 97.1713 26.528 97.1153 26.28C97.0593 26.04 96.9873 25.824 96.8993 25.632C96.8673 25.544 96.8393 25.468 96.8153 25.404C96.7913 25.34 96.7793 25.276 96.7793 25.212C96.7793 25.092 96.8273 25.008 96.9233 24.96C97.0193 24.904 97.1193 24.876 97.2233 24.876C97.2793 24.876 97.3513 24.884 97.4393 24.9C97.5273 24.916 97.5953 24.924 97.6433 24.924C97.8033 24.924 97.9113 24.828 97.9673 24.636C97.9913 24.564 98.0233 24.376 98.0633 24.072C98.1513 23.384 98.3513 22.66 98.6633 21.9C98.8873 21.356 99.1793 20.78 99.5393 20.172C99.7313 19.852 99.8713 19.592 99.9593 19.392C100.103 19.064 100.175 18.772 100.175 18.516C100.175 18.332 100.115 18.2 99.9953 18.12C99.8833 18.04 99.7193 18 99.5033 18H98.8793V17.52H102.647ZM99.6593 25.02H101.651L101.423 24.168C101.255 23.568 101.099 22.956 100.955 22.332C100.811 21.708 100.687 21.096 100.583 20.496L100.463 19.872C99.9593 20.512 99.5313 21.308 99.1793 22.26C98.8593 23.116 98.6993 23.788 98.6993 24.276C98.6993 24.58 98.7673 24.78 98.9033 24.876C99.0393 24.972 99.2913 25.02 99.6593 25.02ZM108.29 17.208C108.37 17.208 108.462 17.264 108.566 17.376C108.63 17.456 108.698 17.532 108.77 17.604C108.946 17.788 109.074 17.92 109.154 18C109.242 18.072 109.474 18.272 109.85 18.6C110.482 19.152 110.902 19.66 111.11 20.124C111.286 20.508 111.374 20.952 111.374 21.456C111.374 21.992 111.27 22.476 111.062 22.908C110.886 23.268 110.598 23.652 110.198 24.06C109.806 24.46 109.406 24.856 108.998 25.248C108.63 25.616 108.374 25.8 108.23 25.8C108.142 25.8 108.03 25.752 107.894 25.656C107.758 25.56 107.482 25.336 107.066 24.984C106.378 24.384 105.93 23.948 105.722 23.676C105.274 23.076 105.05 22.396 105.05 21.636C105.05 20.828 105.322 20.052 105.866 19.308C106.194 18.86 106.666 18.388 107.282 17.892C107.418 17.788 107.51 17.716 107.558 17.676C107.614 17.628 107.682 17.564 107.762 17.484C107.842 17.396 107.922 17.328 108.002 17.28C108.082 17.232 108.178 17.208 108.29 17.208ZM107.534 18.72C107.126 18.776 106.794 18.972 106.538 19.308C106.282 19.644 106.154 20.004 106.154 20.388C106.154 20.74 106.302 21.136 106.598 21.576C106.87 21.976 107.294 22.46 107.87 23.028C108.23 23.38 108.47 23.64 108.59 23.808C108.71 23.968 108.782 24.144 108.806 24.336C109.142 24.2 109.446 23.988 109.718 23.7C109.998 23.412 110.166 23.1 110.222 22.764C110.238 22.684 110.246 22.62 110.246 22.572C110.246 22.524 110.238 22.46 110.222 22.38C110.166 22.044 109.922 21.62 109.49 21.108C109.146 20.724 108.886 20.432 108.71 20.232C108.27 19.752 108.038 19.496 108.014 19.464C107.758 19.176 107.598 18.928 107.534 18.72ZM119.432 20.34H116.444V19.872H116.924C116.924 19.12 116.792 18.576 116.528 18.24C116.32 17.976 116.044 17.844 115.7 17.844C115.324 17.844 115.02 18.004 114.788 18.324C114.484 18.748 114.332 19.404 114.332 20.292C114.332 20.74 114.364 21.168 114.428 21.576C114.492 21.984 114.6 22.508 114.752 23.148C114.912 23.788 114.992 24.32 114.992 24.744C114.992 24.84 114.98 24.928 114.956 25.008C114.94 25.088 114.924 25.16 114.908 25.224L114.86 25.392C114.908 25.432 114.996 25.452 115.124 25.452C115.556 25.452 115.964 25.164 116.348 24.588C116.74 24.012 116.936 23.376 116.936 22.68C116.936 22.544 116.932 22.444 116.924 22.38H116.444V21.9H119.432V22.38H118.964C118.964 23.316 118.536 24.124 117.68 24.804C116.888 25.436 116.028 25.752 115.1 25.752C114.876 25.752 114.712 25.74 114.608 25.716C114.512 25.7 114.396 25.664 114.26 25.608V25.452C114.26 25.212 114.2 24.984 114.08 24.768C113.968 24.552 113.692 24.16 113.252 23.592C112.86 23.096 112.596 22.632 112.46 22.2C112.372 21.92 112.328 21.584 112.328 21.192V20.892C112.328 19.828 112.676 18.964 113.372 18.3C114.028 17.676 114.844 17.364 115.82 17.364C116.876 17.364 117.684 17.68 118.244 18.312C118.612 18.728 118.852 19.248 118.964 19.872H119.432V20.34ZM122.902 21.036H123.322L123.49 20.724L123.67 20.316L123.91 19.824C124.374 18.904 124.67 18.356 124.798 18.18C125.19 17.636 125.65 17.364 126.178 17.364C126.554 17.364 126.886 17.432 127.174 17.568C127.094 17.784 127.014 18 126.934 18.216C126.91 18.296 126.898 18.416 126.898 18.576C126.874 18.768 126.862 18.952 126.862 19.128H126.634L126.262 18.984C126.19 18.944 126.102 18.912 125.998 18.888C125.902 18.856 125.786 18.84 125.65 18.84C125.202 18.84 124.582 19.616 123.79 21.168C125.038 21.448 125.898 21.944 126.37 22.656C126.77 23.256 126.97 24.044 126.97 25.02H127.654V25.5H124.558V25.02H125.002C125.002 23.908 124.886 23.112 124.654 22.632C124.35 22.008 123.766 21.612 122.902 21.444V25.02H123.61V25.5H120.19V25.02H121.138V18H120.19V17.52H123.694V18H122.902V21.036ZM131.646 17.208C131.726 17.208 131.818 17.264 131.922 17.376C131.986 17.456 132.054 17.532 132.126 17.604C132.302 17.788 132.43 17.92 132.51 18C132.598 18.072 132.83 18.272 133.206 18.6C133.838 19.152 134.258 19.66 134.466 20.124C134.642 20.508 134.73 20.952 134.73 21.456C134.73 21.992 134.626 22.476 134.418 22.908C134.242 23.268 133.954 23.652 133.554 24.06C133.162 24.46 132.762 24.856 132.354 25.248C131.986 25.616 131.73 25.8 131.586 25.8C131.498 25.8 131.386 25.752 131.25 25.656C131.114 25.56 130.838 25.336 130.422 24.984C129.734 24.384 129.286 23.948 129.078 23.676C128.63 23.076 128.406 22.396 128.406 21.636C128.406 20.828 128.678 20.052 129.222 19.308C129.55 18.86 130.022 18.388 130.638 17.892C130.774 17.788 130.866 17.716 130.914 17.676C130.97 17.628 131.038 17.564 131.118 17.484C131.198 17.396 131.278 17.328 131.358 17.28C131.438 17.232 131.534 17.208 131.646 17.208ZM130.89 18.72C130.482 18.776 130.15 18.972 129.894 19.308C129.638 19.644 129.51 20.004 129.51 20.388C129.51 20.74 129.658 21.136 129.954 21.576C130.226 21.976 130.65 22.46 131.226 23.028C131.586 23.38 131.826 23.64 131.946 23.808C132.066 23.968 132.138 24.144 132.162 24.336C132.498 24.2 132.802 23.988 133.074 23.7C133.354 23.412 133.522 23.1 133.578 22.764C133.594 22.684 133.602 22.62 133.602 22.572C133.602 22.524 133.594 22.46 133.578 22.38C133.522 22.044 133.278 21.62 132.846 21.108C132.502 20.724 132.242 20.432 132.066 20.232C131.626 19.752 131.394 19.496 131.37 19.464C131.114 19.176 130.954 18.928 130.89 18.72ZM138.359 18V25.02H139.151V25.5H135.647V25.02H136.595V18H135.647V17.52H143.591V18H142.643V25.02H143.591V25.5H140.099V25.02H140.879V18H138.359ZM63.5684 35.34H60.5804V34.872H61.0604C61.0604 34.12 60.9284 33.576 60.6644 33.24C60.4564 32.976 60.1804 32.844 59.8364 32.844C59.4604 32.844 59.1564 33.004 58.9244 33.324C58.6204 33.748 58.4684 34.404 58.4684 35.292C58.4684 35.74 58.5004 36.168 58.5644 36.576C58.6284 36.984 58.7364 37.508 58.8884 38.148C59.0484 38.788 59.1284 39.32 59.1284 39.744C59.1284 39.84 59.1164 39.928 59.0924 40.008C59.0764 40.088 59.0604 40.16 59.0444 40.224L58.9964 40.392C59.0444 40.432 59.1324 40.452 59.2604 40.452C59.6924 40.452 60.1004 40.164 60.4844 39.588C60.8764 39.012 61.0724 38.376 61.0724 37.68C61.0724 37.544 61.0684 37.444 61.0604 37.38H60.5804V36.9H63.5684V37.38H63.1004C63.1004 38.316 62.6724 39.124 61.8164 39.804C61.0244 40.436 60.1644 40.752 59.2364 40.752C59.0124 40.752 58.8484 40.74 58.7444 40.716C58.6484 40.7 58.5324 40.664 58.3964 40.608V40.452C58.3964 40.212 58.3364 39.984 58.2164 39.768C58.1044 39.552 57.8284 39.16 57.3884 38.592C56.9964 38.096 56.7324 37.632 56.5964 37.2C56.5084 36.92 56.4644 36.584 56.4644 36.192V35.892C56.4644 34.828 56.8124 33.964 57.5084 33.3C58.1644 32.676 58.9804 32.364 59.9564 32.364C61.0124 32.364 61.8204 32.68 62.3804 33.312C62.7484 33.728 62.9884 34.248 63.1004 34.872H63.5684V35.34ZM67.5908 32.208C67.6708 32.208 67.7628 32.264 67.8668 32.376C67.9308 32.456 67.9988 32.532 68.0708 32.604C68.2468 32.788 68.3748 32.92 68.4548 33C68.5428 33.072 68.7748 33.272 69.1508 33.6C69.7828 34.152 70.2028 34.66 70.4108 35.124C70.5868 35.508 70.6748 35.952 70.6748 36.456C70.6748 36.992 70.5708 37.476 70.3628 37.908C70.1868 38.268 69.8988 38.652 69.4988 39.06C69.1068 39.46 68.7068 39.856 68.2988 40.248C67.9308 40.616 67.6748 40.8 67.5308 40.8C67.4428 40.8 67.3308 40.752 67.1948 40.656C67.0588 40.56 66.7828 40.336 66.3668 39.984C65.6788 39.384 65.2308 38.948 65.0228 38.676C64.5748 38.076 64.3508 37.396 64.3508 36.636C64.3508 35.828 64.6228 35.052 65.1668 34.308C65.4948 33.86 65.9668 33.388 66.5828 32.892C66.7188 32.788 66.8108 32.716 66.8588 32.676C66.9148 32.628 66.9828 32.564 67.0628 32.484C67.1428 32.396 67.2228 32.328 67.3028 32.28C67.3828 32.232 67.4788 32.208 67.5908 32.208ZM66.8348 33.72C66.4268 33.776 66.0948 33.972 65.8388 34.308C65.5828 34.644 65.4548 35.004 65.4548 35.388C65.4548 35.74 65.6028 36.136 65.8988 36.576C66.1708 36.976 66.5948 37.46 67.1708 38.028C67.5308 38.38 67.7708 38.64 67.8908 38.808C68.0108 38.968 68.0828 39.144 68.1068 39.336C68.4428 39.2 68.7468 38.988 69.0188 38.7C69.2988 38.412 69.4668 38.1 69.5228 37.764C69.5388 37.684 69.5468 37.62 69.5468 37.572C69.5468 37.524 69.5388 37.46 69.5228 37.38C69.4668 37.044 69.2228 36.62 68.7908 36.108C68.4468 35.724 68.1868 35.432 68.0108 35.232C67.5708 34.752 67.3388 34.496 67.3148 34.464C67.0588 34.176 66.8988 33.928 66.8348 33.72ZM71.5924 32.52C72.3604 32.528 73.1524 32.536 73.9684 32.544C74.7844 32.544 75.3244 32.544 75.5884 32.544C75.6364 32.544 75.8284 32.536 76.1644 32.52C76.5004 32.496 76.8884 32.484 77.3284 32.484C77.5684 32.484 77.6884 32.616 77.6884 32.88C77.6884 32.96 77.6684 33.044 77.6284 33.132C77.5884 33.22 77.5444 33.316 77.4964 33.42C77.4004 33.66 77.3364 33.924 77.3044 34.212C77.2724 34.5 77.2484 34.676 77.2324 34.74C77.1844 34.908 77.0884 34.992 76.9444 34.992C76.8244 34.992 76.7404 34.944 76.6924 34.848C76.6764 34.816 76.6404 34.7 76.5844 34.5C76.4084 33.868 76.1684 33.44 75.8644 33.216C75.6644 33.072 75.3764 33 75.0004 33H74.7364H74.3044V35.856C74.5364 36.08 74.7164 36.224 74.8444 36.288C74.9724 36.344 75.2324 36.424 75.6244 36.528C76.1764 36.648 76.7324 36.768 77.2924 36.888C77.7404 37.056 77.9644 37.54 77.9644 38.34V39.768C77.9644 40.016 77.8924 40.208 77.7484 40.344C77.6044 40.472 77.4204 40.536 77.1964 40.536L71.5924 40.5V40.02H72.5404V33H71.5924V32.52ZM74.3044 40.02C74.4564 40.036 74.6244 40.048 74.8084 40.056C74.9924 40.064 75.1764 40.068 75.3604 40.068C75.5604 40.068 75.6924 40.056 75.7564 40.032C75.9564 39.944 76.0724 39.88 76.1044 39.84C76.1764 39.752 76.2124 39.556 76.2124 39.252V37.968C76.2124 37.8 76.1884 37.68 76.1404 37.608C76.0924 37.528 75.9524 37.424 75.7204 37.296C75.3044 37.072 75.0364 36.92 74.9164 36.84C74.6924 36.688 74.4884 36.504 74.3044 36.288V40.02ZM82.5298 32.52V33H81.5818V35.808C81.8778 36.088 82.3098 36.324 82.8778 36.516C83.3498 36.676 83.7418 36.756 84.0538 36.756L84.5218 36.744C84.5698 36.736 84.6378 36.732 84.7258 36.732C84.9338 36.732 85.0698 36.796 85.1338 36.924C85.1978 37.052 85.2298 37.236 85.2298 37.476V39.708C85.2298 40.052 85.1778 40.272 85.0738 40.368C84.9778 40.456 84.7978 40.5 84.5338 40.5H78.8698V40.02H79.8178V33H78.8698V32.52H82.5298ZM86.6218 40.02V33H85.6738V32.52H89.3338V33H88.3858V40.02H89.3338V40.5H85.6738V40.02H86.6218ZM81.5818 40.02H82.6138C82.8698 40.02 83.0498 39.996 83.1538 39.948C83.3618 39.852 83.4658 39.664 83.4658 39.384V38.028L83.4538 37.752C83.4538 37.568 83.4258 37.44 83.3698 37.368C83.3138 37.296 83.1618 37.22 82.9138 37.14C82.6658 37.06 82.4378 36.968 82.2298 36.864C81.9818 36.736 81.7658 36.596 81.5818 36.444V40.02ZM93.3092 40.02V33H92.8293C92.3733 33 92.0853 33.052 91.9653 33.156C91.7413 33.348 91.5253 33.848 91.3173 34.656C91.2693 34.864 91.2413 34.976 91.2333 34.992C91.1773 35.152 91.0813 35.232 90.9453 35.232C90.8013 35.232 90.7093 35.188 90.6693 35.1C90.6293 35.004 90.6093 34.876 90.6093 34.716C90.6093 34.396 90.5413 34.064 90.4053 33.72C90.3733 33.624 90.2973 33.444 90.1772 33.18C90.0973 33.004 90.0573 32.876 90.0573 32.796C90.0573 32.684 90.1013 32.584 90.1893 32.496C90.2773 32.408 90.4013 32.364 90.5613 32.364C90.7693 32.404 90.9973 32.444 91.2453 32.484C91.5013 32.516 91.7853 32.532 92.0973 32.532L92.5053 32.52H95.8893L96.2973 32.532C96.6493 32.532 96.9373 32.516 97.1613 32.484C97.3853 32.444 97.6093 32.404 97.8333 32.364C97.9933 32.364 98.1133 32.412 98.1933 32.508C98.2813 32.596 98.3253 32.692 98.3253 32.796C98.3253 32.884 98.2733 33.044 98.1693 33.276C98.0733 33.508 98.0133 33.656 97.9893 33.72C97.9253 33.88 97.8733 34.048 97.8333 34.224C97.7933 34.4 97.7733 34.564 97.7733 34.716C97.7733 34.876 97.7653 34.98 97.7493 35.028C97.7013 35.164 97.6013 35.232 97.4493 35.232C97.3133 35.232 97.2093 35.12 97.1373 34.896C97.1133 34.832 97.0573 34.628 96.9693 34.284C96.8253 33.74 96.6493 33.376 96.4413 33.192C96.2973 33.064 96.0773 33 95.7812 33H95.5653H95.0733V40.02H96.0333V40.5H92.3733V40.02H93.3092ZM104.293 34.98L101.773 38.052V40.02H102.565V40.5H99.0612V40.02H100.009V33H99.0612V32.52H102.565V33H101.773V37.296L104.293 34.212V33H103.513V32.52H107.005V33H106.057V40.02H107.005V40.5H103.513V40.02H104.293V34.98ZM113.129 34.98L110.609 38.052V40.02H111.401V40.5H107.897V40.02H108.845V33H107.897V32.52H111.269V33H110.609V37.296L113.129 34.212V33H112.469V32.52H115.841V33H114.893V40.02H115.841V40.5H112.349V40.02H113.129V34.98ZM113.213 30.324L113.717 30.516C113.533 30.988 113.273 31.388 112.937 31.716C112.601 32.036 112.249 32.196 111.881 32.196C111.457 32.196 111.093 32.004 110.789 31.62C110.525 31.284 110.353 30.856 110.273 30.336L110.717 30.216C110.813 30.472 110.933 30.676 111.077 30.828C111.277 31.044 111.517 31.152 111.797 31.152C112.165 31.152 112.481 31.06 112.745 30.876C112.945 30.732 113.101 30.548 113.213 30.324Z" fill="#2B2A29"/><defs><linearGradient id="paint0_linear_15_748" x1="-1.5052e-07" y1="40.1783" x2="45.9692" y2="40.1783" gradientUnits="userSpaceOnUse"><stop stop-color="#A7722C"/><stop offset="0.129684" stop-color="#E9C15C"/><stop offset="0.262858" stop-color="#A36E29"/><stop offset="0.709079" stop-color="#EAD565"/><stop offset="1" stop-color="#A26C28"/></linearGradient><linearGradient id="paint1_linear_15_748" x1="13.4526" y1="10.3393" x2="18.7251" y2="10.3393" gradientUnits="userSpaceOnUse"><stop stop-color="#2A2217"/><stop offset="1" stop-color="#BF561F"/></linearGradient><linearGradient id="paint2_linear_15_748" x1="16.4659" y1="6.36671" x2="22.4212" y2="6.36671" gradientUnits="userSpaceOnUse"><stop stop-color="#2A2217"/><stop offset="1" stop-color="#BF561F"/></linearGradient><linearGradient id="paint3_linear_15_748" x1="27.1323" y1="10.36" x2="32.3945" y2="10.36" gradientUnits="userSpaceOnUse"><stop stop-color="#A7722C"/><stop offset="0.129684" stop-color="#E9C15C"/><stop offset="0.262858" stop-color="#A36E29"/><stop offset="0.709079" stop-color="#EAD565"/><stop offset="1" stop-color="#A26C28"/></linearGradient><linearGradient id="paint4_linear_15_748" x1="23.4365" y1="6.38745" x2="29.3802" y2="6.38745" gradientUnits="userSpaceOnUse"><stop stop-color="#A7722C"/><stop offset="0.129684" stop-color="#E9C15C"/><stop offset="0.262858" stop-color="#A36E29"/><stop offset="0.709079" stop-color="#EAD565"/><stop offset="1" stop-color="#A26C28"/></linearGradient><linearGradient id="paint5_linear_15_748" x1="22.9" y1="18.1133" x2="42.0481" y2="18.1133" gradientUnits="userSpaceOnUse"><stop stop-color="#2A2217"/><stop offset="1" stop-color="#BF561F"/></linearGradient><linearGradient id="paint6_linear_15_748" x1="3.83203" y1="18.1897" x2="22.9428" y2="18.1897" gradientUnits="userSpaceOnUse"><stop stop-color="#A7722C"/><stop offset="0.129684" stop-color="#E9C15C"/><stop offset="0.262858" stop-color="#A36E29"/><stop offset="0.709079" stop-color="#EAD565"/><stop offset="1" stop-color="#A26C28"/></linearGradient><linearGradient id="paint7_linear_15_748" x1="6.78234" y1="26.0631" x2="32.1533" y2="26.0631" gradientUnits="userSpaceOnUse"><stop stop-color="#2A2217"/><stop offset="1" stop-color="#BF561F"/></linearGradient><linearGradient id="paint8_linear_15_748" x1="13.7275" y1="15.9298" x2="32.1541" y2="15.9298" gradientUnits="userSpaceOnUse"><stop stop-color="#A7722C"/><stop offset="0.129684" stop-color="#E9C15C"/><stop offset="0.262858" stop-color="#A36E29"/><stop offset="0.709079" stop-color="#EAD565"/><stop offset="1" stop-color="#A26C28"/></linearGradient><linearGradient id="paint9_linear_15_748" x1="13.7087" y1="15.8938" x2="22.94" y2="15.8938" gradientUnits="userSpaceOnUse"><stop stop-color="#2A2217"/><stop offset="1" stop-color="#BF561F"/></linearGradient><linearGradient id="paint10_linear_15_748" x1="30.1284" y1="26.0901" x2="39.0461" y2="26.0901" gradientUnits="userSpaceOnUse"><stop stop-color="#A7722C"/><stop offset="0.129684" stop-color="#E9C15C"/><stop offset="0.262858" stop-color="#A36E29"/><stop offset="0.709079" stop-color="#EAD565"/><stop offset="1" stop-color="#A26C28"/></linearGradient><clipPath id="clip0_15_748"><rect width="45.9843" height="40" fill="white" transform="translate(0 3)"/></clipPath></defs></svg>