<svg width="46" height="40" viewBox="0 0 46 40" fill="none" xmlns="http://www.w3.org/2000/svg"><g clip-path="url(#clip0_1_1991)"><path d="M27.2154 31.0016C28.2103 29.9444 28.8214 28.5197 28.8214 26.9509C28.8214 23.6912 26.1878 21.0486 22.9391 21.0486C19.6905 21.0486 17.0569 23.6912 17.0569 26.9509C17.0569 28.5197 17.668 29.9444 18.6629 31.0016H27.2154Z" fill="#2457A1"/><path d="M13.5268 9.96743L13.157 9.32476L12.1261 9.922V8.72754H11.3866V9.922L10.3556 9.32476L9.98587 9.96743L11.0168 10.5647L9.98587 11.1619L10.3556 11.8046L11.3866 11.2073V12.4018H12.1261V11.2073L13.157 11.8046L13.5268 11.1619L12.4959 10.5647L13.5268 9.96743Z" fill="#2457A1"/><path d="M35.8861 9.96743L35.5163 9.32476L34.4854 9.922V8.72754H33.7458V9.922L32.7149 9.32476L32.3451 9.96743L33.376 10.5647L32.3451 11.1619L32.7149 11.8046L33.7458 11.2073V12.4018H34.4854V11.2073L35.5163 11.8046L35.8861 11.1619L34.8552 10.5647L35.8861 9.96743Z" fill="#2457A1"/><path fill-rule="evenodd" clip-rule="evenodd" d="M4.36795 31.8782C4.27655 31.8108 4.14797 31.8305 4.08075 31.9222L3.13056 33.2144C3.08141 33.2814 2.98748 33.2957 2.92075 33.2464C2.85401 33.197 2.83976 33.1028 2.88891 33.0358L3.3706 32.3796L3.75242 31.8586C3.82545 31.759 3.79599 31.6153 3.68333 31.5544C3.59078 31.5044 3.47437 31.5422 3.41209 31.6272L3.07913 32.0815C3.0416 32.1327 2.96828 32.1404 2.92102 32.098L2.58972 31.8014C2.49804 31.7187 2.35267 31.7341 2.28123 31.8406C2.22255 31.9281 2.24864 32.0481 2.32683 32.1186L2.69211 32.4459C2.73314 32.4827 2.73959 32.5447 2.707 32.5892L2.35647 33.0675C2.29167 33.1559 2.15999 33.1559 2.0952 33.0675L1.74466 32.5892C1.71207 32.5447 1.71851 32.4827 1.75956 32.4459L2.12484 32.1186C2.20304 32.048 2.22912 31.9281 2.17043 31.8406C2.09899 31.7341 1.95361 31.7187 1.86195 31.8014L1.53064 32.098C1.48338 32.1404 1.41007 32.1327 1.37254 32.0815L1.03958 31.6272C0.977292 31.5422 0.860887 31.5044 0.768333 31.5544C0.655671 31.6153 0.626218 31.759 0.699241 31.8586L1.08106 32.3796L1.56276 33.0358C1.61191 33.1028 1.59765 33.197 1.53092 33.2464C1.46419 33.2957 1.37025 33.2814 1.32111 33.2144L0.370913 31.9222C0.303693 31.8305 0.175117 31.8108 0.0837188 31.8782C-0.00767945 31.9457 -0.0272854 32.0747 0.0399351 32.1664L1.04759 33.5373C1.08982 33.5949 1.22556 33.6616 1.34582 33.6616H3.10583C3.22609 33.6616 3.36184 33.5949 3.40406 33.5373L4.41172 32.1664C4.47894 32.0747 4.45934 31.9457 4.36795 31.8782ZM4.237 33.3153C4.3284 33.3828 4.45697 33.3631 4.52419 33.2714L5.47438 31.9792C5.52353 31.9122 5.61747 31.8979 5.6842 31.9472C5.75093 31.9965 5.76518 32.0908 5.71604 32.1577L5.23434 32.814L4.85252 33.3349C4.7795 33.4346 4.80895 33.5782 4.92161 33.6392C5.01417 33.6892 5.13057 33.6514 5.19285 33.5664L5.52582 33.1121C5.56335 33.0609 5.63666 33.0532 5.68392 33.0955L6.01523 33.3922C6.1069 33.4749 6.25227 33.4595 6.32371 33.353C6.38239 33.2654 6.3563 33.1455 6.27812 33.075L5.91284 32.7477C5.8718 32.7109 5.86535 32.6489 5.89794 32.6044L6.24848 32.1261C6.31327 32.0377 6.44495 32.0377 6.50975 32.1261L6.86028 32.6044C6.89287 32.6489 6.88643 32.7109 6.84538 32.7477L6.48011 33.075C6.40191 33.1455 6.37582 33.2654 6.43451 33.353C6.50595 33.4595 6.65133 33.4749 6.743 33.3922L7.0743 33.0955C7.12156 33.0532 7.19488 33.0609 7.2324 33.1121L7.56537 33.5664C7.62765 33.6514 7.74406 33.6892 7.83661 33.6392C7.94927 33.5782 7.97873 33.4346 7.9057 33.3349L7.52388 32.814L7.04218 32.1577C6.99304 32.0908 7.00729 31.9965 7.07402 31.9472C7.14075 31.8979 7.23469 31.9122 7.28384 31.9792L8.23403 33.2714C8.30125 33.3631 8.42983 33.3828 8.52123 33.3153C8.61262 33.2479 8.63223 33.1189 8.56501 33.0272L7.55735 31.6563C7.51513 31.5987 7.37938 31.532 7.25912 31.532H5.49912C5.37885 31.532 5.24311 31.5987 5.20088 31.6563L4.19323 33.0272C4.12601 33.1189 4.1456 33.2479 4.237 33.3153ZM12.3873 31.9222C12.4545 31.8305 12.5831 31.8108 12.6745 31.8782C12.7659 31.9457 12.7855 32.0747 12.7182 32.1664L11.7106 33.5373C11.6684 33.5949 11.5326 33.6616 11.4123 33.6616H9.65234C9.53208 33.6616 9.39633 33.5949 9.35411 33.5373L8.34645 32.1664C8.27923 32.0747 8.29884 31.9457 8.39024 31.8782C8.48164 31.8108 8.61021 31.8305 8.67743 31.9222L9.62762 33.2144C9.67677 33.2814 9.77071 33.2957 9.83744 33.2464C9.90417 33.197 9.91842 33.1028 9.86928 33.0358L9.38758 32.3796L9.00576 31.8586C8.93274 31.759 8.96219 31.6153 9.07485 31.5544C9.16741 31.5044 9.28381 31.5422 9.3461 31.6272L9.67906 32.0815C9.71659 32.1327 9.7899 32.1404 9.83716 32.098L10.1685 31.8014C10.2601 31.7187 10.4055 31.7341 10.4769 31.8406C10.5356 31.9281 10.5096 32.048 10.4314 32.1186L10.0661 32.4459C10.025 32.4827 10.0186 32.5447 10.0512 32.5892L10.4017 33.0675C10.4665 33.1559 10.5982 33.1559 10.663 33.0675L11.0135 32.5892C11.0461 32.5447 11.0397 32.4827 10.9986 32.4459L10.6333 32.1186C10.5552 32.0481 10.5291 31.9281 10.5878 31.8406C10.6592 31.7341 10.8046 31.7187 10.8962 31.8014L11.2275 32.098C11.2748 32.1404 11.3481 32.1327 11.3856 32.0815L11.7186 31.6272C11.7809 31.5422 11.8973 31.5044 11.9899 31.5544C12.1025 31.6153 12.132 31.759 12.0589 31.8586L11.6771 32.3796L11.1954 33.0358C11.1463 33.1028 11.1605 33.197 11.2273 33.2464C11.294 33.2957 11.3879 33.2814 11.4371 33.2144L12.3873 31.9222ZM12.5435 33.3153C12.6349 33.3828 12.7635 33.3631 12.8307 33.2714L13.7809 31.9792C13.83 31.9122 13.924 31.8979 13.9907 31.9472C14.0574 31.9965 14.0717 32.0908 14.0226 32.1577L13.5409 32.814L13.159 33.3349C13.086 33.4346 13.1155 33.5782 13.2281 33.6392C13.3207 33.6892 13.4371 33.6514 13.4994 33.5664L13.8323 33.1121C13.8699 33.0609 13.9432 33.0532 13.9904 33.0955L14.3217 33.3922C14.4134 33.4749 14.5588 33.4595 14.6302 33.353C14.6889 33.2654 14.6628 33.1455 14.5846 33.075L14.2194 32.7477C14.1783 32.7109 14.1719 32.6489 14.2045 32.6044L14.555 32.1261C14.6198 32.0377 14.7515 32.0377 14.8163 32.1261L15.1668 32.6044C15.1994 32.6489 15.1929 32.7109 15.1519 32.7477L14.7866 33.075C14.7084 33.1455 14.6823 33.2654 14.741 33.353C14.8125 33.4595 14.9579 33.4749 15.0495 33.3922L15.3808 33.0955C15.4281 33.0532 15.5014 33.0609 15.5389 33.1121L15.8719 33.5664C15.9342 33.6514 16.0506 33.6892 16.1431 33.6392C16.2558 33.5782 16.2852 33.4346 16.2122 33.3349L15.8304 32.814L15.3487 32.1577C15.2996 32.0908 15.3138 31.9965 15.3805 31.9472C15.4473 31.8979 15.5412 31.9122 15.5904 31.9792L16.5405 33.2714C16.6078 33.3631 16.7363 33.3828 16.8277 33.3153C16.9191 33.2479 16.9387 33.1189 16.8715 33.0272L15.8639 31.6563C15.8216 31.5987 15.6859 31.532 15.5656 31.532H13.8056C13.6854 31.532 13.5496 31.5987 13.5074 31.6563L12.4997 33.0272C12.4325 33.1189 12.4521 33.2479 12.5435 33.3153ZM20.6938 31.9222C20.761 31.8305 20.8896 31.8108 20.981 31.8782C21.0724 31.9457 21.092 32.0747 21.0248 32.1664L20.0171 33.5373C19.9749 33.5949 19.8391 33.6616 19.7189 33.6616H17.9589C17.8386 33.6616 17.7029 33.5949 17.6606 33.5373L16.653 32.1664C16.5858 32.0747 16.6054 31.9457 16.6968 31.8782C16.7882 31.8108 16.9167 31.8305 16.9839 31.9222L17.9341 33.2144C17.9833 33.2814 18.0772 33.2957 18.144 33.2464C18.2107 33.197 18.2249 33.1028 18.1758 33.0358L17.6941 32.3796L17.3123 31.8586C17.2393 31.759 17.2687 31.6153 17.3814 31.5544C17.4739 31.5044 17.5903 31.5422 17.6526 31.6272L17.9856 32.0815C18.0231 32.1327 18.0964 32.1404 18.1437 32.098L18.475 31.8014C18.5666 31.7187 18.712 31.7341 18.7835 31.8406C18.8422 31.9281 18.8161 32.048 18.7379 32.1186L18.3726 32.4459C18.3315 32.4827 18.3251 32.5447 18.3577 32.5892L18.7082 33.0675C18.773 33.1559 18.9047 33.1559 18.9695 33.0675L19.32 32.5892C19.3526 32.5447 19.3462 32.4827 19.3051 32.4459L18.9399 32.1186C18.8617 32.0481 18.8356 31.9281 18.8943 31.8406C18.9657 31.7341 19.1111 31.7187 19.2028 31.8014L19.5341 32.098C19.5813 32.1404 19.6546 32.1327 19.6922 32.0815L20.0251 31.6272C20.0874 31.5422 20.2038 31.5044 20.2964 31.5544C20.409 31.6153 20.4385 31.759 20.3655 31.8586L19.9836 32.3796L19.5019 33.0358C19.4528 33.1028 19.467 33.197 19.5338 33.2464C19.6005 33.2957 19.6944 33.2814 19.7436 33.2144L20.6938 31.9222ZM20.85 33.3153C20.9414 33.3828 21.07 33.3631 21.1372 33.2714L22.0874 31.9792C22.1366 31.9122 22.2305 31.8979 22.2972 31.9472C22.364 31.9965 22.3782 32.0908 22.3291 32.1577L21.8474 32.814L21.4656 33.3349C21.3925 33.4346 21.422 33.5782 21.5346 33.6392C21.6272 33.6892 21.7436 33.6514 21.8059 33.5664L22.1389 33.1121C22.1764 33.0609 22.2497 33.0532 22.297 33.0955L22.6283 33.3922C22.7199 33.4749 22.8653 33.4595 22.9367 33.353C22.9954 33.2654 22.9693 33.1455 22.8912 33.075L22.5259 32.7477C22.4848 32.7109 22.4784 32.6489 22.511 32.6044L22.8615 32.1261C22.9263 32.0377 23.058 32.0377 23.1228 32.1261L23.4733 32.6044C23.5059 32.6489 23.4995 32.7109 23.4584 32.7477L23.0931 33.075C23.0149 33.1455 22.9889 33.2654 23.0475 33.353C23.119 33.4595 23.2644 33.4749 23.356 33.3922L23.6873 33.0955C23.7346 33.0532 23.8079 33.0609 23.8454 33.1121L24.1784 33.5664C24.2407 33.6514 24.3571 33.6892 24.4496 33.6392C24.5623 33.5782 24.5918 33.4346 24.5187 33.3349L24.1369 32.814L23.6552 32.1577C23.6061 32.0908 23.6203 31.9965 23.6871 31.9472C23.7538 31.8979 23.8477 31.9122 23.8969 31.9792L24.8471 33.2714C24.9143 33.3631 25.0429 33.3828 25.1343 33.3153C25.2257 33.2479 25.2453 33.1189 25.178 33.0272L24.1704 31.6563C24.1282 31.5987 23.9924 31.532 23.8722 31.532H22.1121C21.9919 31.532 21.8561 31.5987 21.8139 31.6563L20.8063 33.0272C20.739 33.1189 20.7586 33.2479 20.85 33.3153ZM29.0003 31.9222C29.0675 31.8305 29.1961 31.8108 29.2875 31.8782C29.3789 31.9457 29.3985 32.0747 29.3313 32.1664L28.3236 33.5373C28.2814 33.5949 28.1456 33.6616 28.0254 33.6616H26.2654C26.1451 33.6616 26.0094 33.5949 25.9671 33.5373L24.9595 32.1664C24.8923 32.0747 24.9119 31.9457 25.0033 31.8782C25.0947 31.8108 25.2232 31.8305 25.2905 31.9222L26.2407 33.2144C26.2898 33.2814 26.3837 33.2957 26.4505 33.2464C26.5172 33.197 26.5315 33.1028 26.4823 33.0358L26.0006 32.3796L25.6188 31.8586C25.5458 31.759 25.5752 31.6153 25.6879 31.5544C25.7804 31.5044 25.8968 31.5422 25.9591 31.6272L26.2921 32.0815C26.3296 32.1327 26.4029 32.1404 26.4502 32.098L26.7815 31.8014C26.8732 31.7187 27.0185 31.7341 27.09 31.8406C27.1487 31.9281 27.1226 32.048 27.0444 32.1186L26.6791 32.4459C26.6381 32.4827 26.6316 32.5447 26.6642 32.5892L27.0148 33.0675C27.0795 33.1559 27.2112 33.1559 27.276 33.0675L27.6266 32.5892C27.6592 32.5447 27.6527 32.4827 27.6117 32.4459L27.2464 32.1186C27.1682 32.0481 27.1421 31.9281 27.2008 31.8406C27.2722 31.7341 27.4176 31.7187 27.5093 31.8014L27.8406 32.098C27.8878 32.1404 27.9612 32.1327 27.9987 32.0815L28.3316 31.6272C28.3939 31.5422 28.5103 31.5044 28.6029 31.5544C28.7155 31.6153 28.745 31.759 28.672 31.8586L28.2902 32.3796L27.8085 33.0358C27.7593 33.1028 27.7736 33.197 27.8403 33.2464C27.907 33.2957 28.001 33.2814 28.0501 33.2144L29.0003 31.9222ZM29.1566 33.3153C29.248 33.3828 29.3765 33.3631 29.4437 33.2714L30.3939 31.9792C30.4431 31.9122 30.537 31.8979 30.6038 31.9472C30.6705 31.9965 30.6847 32.0908 30.6356 32.1577L30.1539 32.814L29.7721 33.3349C29.6991 33.4346 29.7285 33.5782 29.8412 33.6392C29.9337 33.6892 30.0501 33.6514 30.1124 33.5664L30.4454 33.1121C30.4829 33.0609 30.5562 33.0532 30.6035 33.0955L30.9348 33.3922C31.0265 33.4749 31.1718 33.4595 31.2433 33.353C31.3019 33.2654 31.2759 33.1455 31.1977 33.075L30.8324 32.7477C30.7914 32.7109 30.7849 32.6489 30.8175 32.6044L31.168 32.1261C31.2328 32.0377 31.3645 32.0377 31.4293 32.1261L31.7798 32.6044C31.8124 32.6489 31.806 32.7109 31.7649 32.7477L31.3997 33.075C31.3215 33.1455 31.2954 33.2654 31.3541 33.353C31.4255 33.4595 31.5709 33.4749 31.6626 33.3922L31.9939 33.0955C32.0411 33.0532 32.1144 33.0609 32.152 33.1121L32.4849 33.5664C32.5472 33.6514 32.6636 33.6892 32.7562 33.6392C32.8688 33.5782 32.8983 33.4346 32.8253 33.3349L32.4434 32.814L31.9617 32.1577C31.9126 32.0908 31.9268 31.9965 31.9936 31.9472C32.0603 31.8979 32.1542 31.9122 32.2034 31.9792L33.1536 33.2714C33.2208 33.3631 33.3494 33.3828 33.4408 33.3153C33.5322 33.2479 33.5518 33.1189 33.4846 33.0272L32.4769 31.6563C32.4347 31.5987 32.2989 31.532 32.1787 31.532H30.4187C30.2984 31.532 30.1627 31.5987 30.1204 31.6563L29.1128 33.0272C29.0456 33.1189 29.0652 33.2479 29.1566 33.3153ZM37.3068 31.9222C37.374 31.8305 37.5026 31.8108 37.594 31.8782C37.6854 31.9457 37.705 32.0747 37.6378 32.1664L36.6301 33.5373C36.5879 33.5949 36.4521 33.6616 36.3319 33.6616H34.5719C34.4516 33.6616 34.3159 33.5949 34.2737 33.5373L33.266 32.1664C33.1988 32.0747 33.2184 31.9457 33.3098 31.8782C33.4012 31.8108 33.5298 31.8305 33.597 31.9222L34.5472 33.2144C34.5963 33.2814 34.6902 33.2957 34.757 33.2464C34.8237 33.197 34.838 33.1028 34.7888 33.0358L34.3071 32.3796L33.9253 31.8586C33.8523 31.759 33.8817 31.6153 33.9944 31.5544C34.0869 31.5044 34.2034 31.5422 34.2656 31.6272L34.5986 32.0815C34.6361 32.1327 34.7094 32.1404 34.7567 32.098L35.088 31.8014C35.1797 31.7187 35.325 31.7341 35.3965 31.8406C35.4552 31.9281 35.4291 32.048 35.3509 32.1186L34.9856 32.4459C34.9446 32.4827 34.9381 32.5447 34.9707 32.5892L35.3213 33.0675C35.3861 33.1559 35.5177 33.1559 35.5825 33.0675L35.9331 32.5892C35.9657 32.5447 35.9592 32.4827 35.9182 32.4459L35.5529 32.1186C35.4747 32.0481 35.4486 31.9281 35.5073 31.8406C35.5787 31.7341 35.7241 31.7187 35.8158 31.8014L36.1471 32.098C36.1943 32.1404 36.2677 32.1327 36.3052 32.0815L36.6381 31.6272C36.7004 31.5422 36.8168 31.5044 36.9094 31.5544C37.0221 31.6153 37.0515 31.759 36.9785 31.8586L36.5967 32.3796L36.115 33.0358C36.0658 33.1028 36.0801 33.197 36.1468 33.2464C36.2135 33.2957 36.3075 33.2814 36.3566 33.2144L37.3068 31.9222ZM45.9005 31.8782C45.8091 31.8108 45.6805 31.8305 45.6133 31.9222L44.6631 33.2144C44.614 33.2814 44.5201 33.2957 44.4533 33.2464C44.3866 33.197 44.3723 33.1028 44.4215 33.0358L44.9032 32.3796L45.285 31.8586C45.358 31.759 45.3286 31.6153 45.2159 31.5544C45.1234 31.5044 45.0069 31.5422 44.9447 31.6272L44.6117 32.0815C44.5742 32.1327 44.5009 32.1404 44.4536 32.098L44.1223 31.8014C44.0306 31.7187 43.8853 31.7341 43.8138 31.8406C43.7551 31.9281 43.7812 32.0481 43.8594 32.1186L44.2247 32.4459C44.2657 32.4827 44.2722 32.5447 44.2396 32.5892L43.889 33.0675C43.8242 33.1559 43.6926 33.1559 43.6278 33.0675L43.2772 32.5892C43.2447 32.5447 43.2511 32.4827 43.2921 32.4459L43.6574 32.1186C43.7356 32.048 43.7617 31.9281 43.703 31.8406C43.6316 31.7341 43.4862 31.7187 43.3945 31.8014L43.0632 32.098C43.016 32.1404 42.9426 32.1327 42.9051 32.0815L42.5722 31.6272C42.5099 31.5422 42.3935 31.5044 42.3009 31.5544C42.1882 31.6153 42.1588 31.759 42.2318 31.8586L42.6136 32.3796L43.0953 33.0358C43.1445 33.1028 43.1302 33.197 43.0635 33.2464C42.9968 33.2957 42.9028 33.2814 42.8537 33.2144L41.9035 31.9222C41.8363 31.8305 41.7077 31.8108 41.6163 31.8782C41.5249 31.9457 41.5053 32.0747 41.5725 32.1664L42.5802 33.5373C42.6224 33.5949 42.7581 33.6616 42.8784 33.6616H44.6384C44.7587 33.6616 44.8944 33.5949 44.9366 33.5373L45.9443 32.1664C46.0115 32.0747 45.9919 31.9457 45.9005 31.8782ZM37.7503 33.2714C37.683 33.3631 37.5545 33.3828 37.4631 33.3153C37.3717 33.2479 37.3521 33.1189 37.4193 33.0272L38.427 31.6563C38.4692 31.5987 38.6049 31.532 38.7252 31.532H40.4852C40.6055 31.532 40.7412 31.5987 40.7834 31.6563L41.7911 33.0272C41.8583 33.1189 41.8387 33.2479 41.7473 33.3153C41.6559 33.3828 41.5273 33.3631 41.4601 33.2714L40.5099 31.9792C40.4608 31.9122 40.3668 31.8979 40.3001 31.9472C40.2334 31.9965 40.2191 32.0908 40.2683 32.1577L40.75 32.814L41.1318 33.3349C41.2048 33.4346 41.1753 33.5782 41.0627 33.6392C40.9701 33.6892 40.8537 33.6514 40.7914 33.5664L40.4585 33.1121C40.421 33.0609 40.3476 33.0532 40.3004 33.0955L39.9691 33.3922C39.8774 33.4749 39.732 33.4595 39.6606 33.353C39.6019 33.2654 39.628 33.1455 39.7062 33.075L40.0715 32.7477C40.1125 32.7109 40.1189 32.6489 40.0864 32.6044L39.7358 32.1261C39.671 32.0377 39.5393 32.0377 39.4745 32.1261L39.124 32.6044C39.0914 32.6489 39.0979 32.7109 39.1389 32.7477L39.5042 33.075C39.5824 33.1455 39.6085 33.2654 39.5498 33.353C39.4783 33.4595 39.333 33.4749 39.2413 33.3922L38.91 33.0955C38.8627 33.0532 38.7894 33.0609 38.7519 33.1121L38.4189 33.5664C38.3566 33.6514 38.2402 33.6892 38.1477 33.6392C38.035 33.5782 38.0056 33.4346 38.0786 33.3349L38.4604 32.814L38.9421 32.1577C38.9913 32.0908 38.977 31.9965 38.9103 31.9472C38.8435 31.8979 38.7496 31.9122 38.7005 31.9792L37.7503 33.2714Z" fill="#2457A1"/><path d="M25.1567 23.1177V26.1719L24.4046 25.0604H24.7557L23.8086 23.6607H24.2129L22.9921 21.8566L21.7714 23.6607H22.1756L21.2285 25.0604H21.5796L20.8275 26.1719V23.1177L16.9872 28.7932H22.9921H28.997L25.1567 23.1177Z" fill="white"/><path d="M44.1026 27.3569C44.1026 27.3569 43.6812 29.0676 40.2003 29.0676C36.7193 29.0676 32.1817 26.585 29.1032 26.585C25.5597 26.585 22.9921 28.8065 22.9921 28.8065C22.9921 28.8065 20.4245 26.585 16.881 26.585C13.8025 26.585 9.26492 29.0676 5.78397 29.0676C2.30302 29.0676 1.88163 27.3569 1.88163 27.3569L0.0238953 31.0015H45.9603L44.1026 27.3569Z" fill="#169E48"/><path d="M45.9604 40H0L2.38638 37.1477L0 34.2954H45.9604L43.574 37.1477L45.9604 40Z" fill="url(#paint0_linear_1_1991)"/><path d="M44.8826 34.7995L43.1892 36.8236L42.918 37.1477L43.1892 37.4719L44.8826 39.4959H1.07773L2.77115 37.4719L3.04233 37.1477L2.77115 36.8236L1.07771 34.7995H44.8826ZM45.9603 34.2954H0L2.38638 37.1477L0 40H45.9604L43.574 37.1477L45.9603 34.2954Z" fill="white"/><path d="M45.4215 34.5475L43.3816 36.9857L43.246 37.1477L43.3816 37.3098L45.4215 39.748H0.538869L2.57877 37.3098L2.71435 37.1477L2.57877 36.9857L0.538869 34.5475H45.4215ZM45.9604 34.2954H0L2.38638 37.1477L0 40H45.9604L43.574 37.1477L45.9604 34.2954Z" fill="#2B2A29"/><path d="M4.80465 36.1762H4.59381V36.0603H5.4459V36.1762H5.23223L5.73487 37.9096H5.92548V38.0255H5.10222V37.9096H5.31012L5.10505 37.1965C5.0588 37.4084 4.98092 37.5981 4.87114 37.7656C4.74014 37.964 4.60142 38.0632 4.4551 38.0632C4.36654 38.0632 4.29527 38.0381 4.24132 37.988C4.17778 37.9282 4.14601 37.8423 4.14601 37.7304C4.14601 37.5838 4.18735 37.4188 4.27027 37.2355C4.33381 37.0966 4.4329 36.9239 4.56782 36.7174C4.62363 36.6344 4.67944 36.5515 4.73537 36.4685C4.78541 36.3836 4.81044 36.3064 4.81044 36.237C4.81044 36.2235 4.80846 36.2033 4.80465 36.1762ZM4.39731 37.539C4.39731 37.5988 4.41178 37.6441 4.4406 37.6749C4.46955 37.7058 4.50512 37.7212 4.54756 37.7212C4.59957 37.7212 4.64189 37.701 4.67463 37.6605C4.7362 37.5814 4.80072 37.484 4.86818 37.3683C4.96066 37.2103 5.01267 37.086 5.0242 36.9953L4.89994 36.4979C4.83825 36.5827 4.77668 36.6667 4.7151 36.7495C4.66309 36.8228 4.62164 36.8883 4.59085 36.9461C4.55234 37.0156 4.51186 37.1101 4.46954 37.2296C4.42134 37.3664 4.39731 37.4696 4.39731 37.539Z" fill="#2B2A29"/><path d="M6.70544 37.2893V37.9096H6.9337V38.0255H6.04973V37.9096H6.27786L6.2808 36.9009V36.2834C6.2808 36.2023 6.35587 36.1424 6.50611 36.1037C6.62165 36.0748 6.76897 36.0603 6.94805 36.0603C7.1638 36.0603 7.33514 36.1135 7.46234 36.2197C7.58168 36.3202 7.64142 36.4507 7.64142 36.611C7.64142 36.7636 7.59774 36.8907 7.51042 36.9922C7.42296 37.0936 7.31306 37.1443 7.18059 37.1443C7.12687 37.1443 7.07793 37.1347 7.03378 37.1154C6.99919 37.0961 6.97319 37.0815 6.95602 37.0718L6.89556 37.0429L6.70544 37.2893ZM6.70544 37.124L6.88047 36.9009C6.91494 36.9318 6.94842 36.9473 6.98105 36.9473C7.0403 36.9473 7.08482 36.9159 7.1145 36.853C7.14418 36.7903 7.15903 36.7077 7.15903 36.6053C7.15903 36.47 7.14554 36.3704 7.1188 36.3067C7.08249 36.2197 7.0192 36.1762 6.92929 36.1762C6.82601 36.1762 6.75905 36.24 6.72839 36.3675C6.71305 36.4312 6.70545 36.5599 6.70545 36.7531L6.70544 37.124Z" fill="#2B2A29"/><path d="M8.84026 36.8168L9.46702 37.9096H9.70105V38.0255H8.72177V37.9096H8.98179L8.55458 37.1827L8.39439 37.4888C8.37146 37.5311 8.3457 37.593 8.317 37.6746C8.2883 37.7563 8.27394 37.8126 8.27394 37.8434C8.27394 37.8664 8.28596 37.8831 8.31013 37.8937C8.33417 37.9043 8.36361 37.9096 8.3982 37.9096H8.4675V38.0255H7.80309V37.9066C7.82234 37.9086 7.83583 37.9096 7.84357 37.9096C7.94181 37.9096 8.02363 37.8682 8.08913 37.7856C8.12961 37.7357 8.18835 37.627 8.26538 37.4599L8.30291 37.3791L8.4675 37.0371L7.98804 36.2138H7.80602V36.0979H8.664V36.2138H8.45893L8.74778 36.6834C8.83253 36.4999 8.90858 36.3646 8.97604 36.2776C9.08766 36.1328 9.20798 36.0603 9.33714 36.0603C9.38326 36.0603 9.43968 36.0694 9.50603 36.0877C9.57251 36.1062 9.60574 36.125 9.60574 36.1443C9.60574 36.1521 9.59802 36.1718 9.58268 36.2038C9.56723 36.2356 9.54981 36.267 9.53067 36.2979L9.50467 36.4429C9.50651 36.466 9.50369 36.4892 9.49597 36.5124C9.49021 36.5124 9.4777 36.5129 9.45844 36.5139C9.43919 36.5149 9.4257 36.5153 9.41796 36.5153C9.38522 36.5153 9.34572 36.4989 9.29947 36.466C9.25335 36.4332 9.21864 36.4168 9.19559 36.4168C9.14162 36.4168 9.08961 36.4409 9.03957 36.4892C8.97788 36.5491 8.9114 36.6584 8.84026 36.8168Z" fill="#2B2A29"/><path d="M11.105 36.6945L10.4983 37.4348V37.9096H10.6889V38.0255H9.84541V37.9096H10.0737V36.2139H9.84541V36.0979H10.6889V36.2139H10.4983V37.2516L11.105 36.5067V36.2139H10.9172V36.0979H11.7579V36.2139H11.5296V37.9096H11.7579V38.0255H10.9172V37.9096H11.105V36.6945Z" fill="#2B2A29"/><path d="M12.168 37.9096L12.1652 36.6951C12.1652 36.4342 12.2123 36.2631 12.3067 36.182C12.4011 36.1008 12.6014 36.0603 12.9076 36.0603C13.0828 36.0603 13.2243 36.1058 13.3323 36.197C13.4304 36.2805 13.4796 36.3832 13.4796 36.5053C13.4796 36.6353 13.4228 36.739 13.3091 36.8166C13.2225 36.8747 13.1396 36.9037 13.0607 36.9037C13.0472 36.9057 13.0327 36.9071 13.0173 36.9081C13.002 36.9091 12.9914 36.9095 12.9855 36.9095C12.9452 36.9095 12.9008 36.8951 12.8527 36.866L12.6794 36.9559C12.7622 37.0216 12.845 37.0718 12.9278 37.1067C12.9547 37.1182 12.9899 37.1294 13.0332 37.14C13.0765 37.1506 13.1203 37.1608 13.1647 37.1704C13.2494 37.1878 13.2966 37.1985 13.3063 37.2023C13.3851 37.2293 13.4363 37.268 13.4594 37.3182C13.4728 37.3473 13.4796 37.3897 13.4796 37.4458V37.8777C13.4796 37.9202 13.4535 37.9575 13.4015 37.9893C13.3493 38.0212 13.2962 38.0371 13.2422 38.0371L11.9399 38.0255V37.9096H12.168ZM12.5926 36.9124L12.7787 36.7762C12.7942 36.7859 12.8117 36.7907 12.8311 36.7907C12.8582 36.7907 12.8848 36.7858 12.9109 36.7762C12.9372 36.7665 12.9541 36.7577 12.9618 36.75C13.0006 36.7073 13.0219 36.6829 13.0259 36.6771C13.0452 36.6364 13.0549 36.5635 13.0549 36.4587C13.0549 36.3616 13.0342 36.2903 12.9927 36.2446C12.9513 36.199 12.8989 36.1762 12.8354 36.1762C12.7352 36.1762 12.6669 36.239 12.6303 36.3646C12.6052 36.4477 12.5926 36.5732 12.5926 36.7414V36.9124ZM12.5926 37.9096H12.9328C12.9793 37.9096 13.0113 37.898 13.0287 37.8747C13.0461 37.8516 13.0549 37.8014 13.0549 37.7241V37.414C13.0549 37.3733 13.049 37.3439 13.0374 37.3255C13.0258 37.3071 12.9919 37.2825 12.9357 37.2516C12.8408 37.2014 12.7758 37.1646 12.7409 37.1415C12.6848 37.1048 12.6353 37.0603 12.5926 37.0081V37.9096Z" fill="#2B2A29"/><path d="M14.4067 37.0196V37.9096H14.5974V38.0255H13.7539V37.9096H13.9821V36.2139H13.7539V36.0979H14.5974V36.2139H14.4067V36.8863H15.0134V36.2139H14.8285V36.0979H15.6663V36.2139H15.438V37.9096H15.6663V38.0255H14.8285V37.9096H15.0134V37.0196H14.4067Z" fill="#2B2A29"/><path d="M16.53 36.1762H16.3192V36.0603H17.1714V36.1762H16.9576L17.4602 37.9096H17.651V38.0255H16.8276V37.9096H17.0356L16.8305 37.1965C16.7843 37.4084 16.7063 37.5981 16.5965 37.7656C16.4655 37.964 16.3269 38.0632 16.1806 38.0632C16.0919 38.0632 16.0206 38.0381 15.9668 37.988C15.9032 37.9282 15.8715 37.8423 15.8715 37.7304C15.8715 37.5838 15.9128 37.4188 15.9956 37.2355C16.0592 37.0966 16.1584 36.9239 16.2932 36.7174C16.349 36.6344 16.4049 36.5515 16.4607 36.4685C16.5108 36.3836 16.5358 36.3064 16.5358 36.237C16.5358 36.2235 16.5339 36.2033 16.53 36.1762ZM16.1228 37.539C16.1228 37.5988 16.1371 37.6441 16.1661 37.6749C16.1949 37.7058 16.2306 37.7212 16.2729 37.7212C16.3249 37.7212 16.3672 37.701 16.4001 37.6605C16.4617 37.5814 16.5262 37.484 16.5936 37.3683C16.686 37.2103 16.738 37.086 16.7495 36.9953L16.6254 36.4979C16.5637 36.5827 16.5022 36.6667 16.4404 36.7495C16.3884 36.8228 16.3471 36.8883 16.3163 36.9461C16.2777 37.0156 16.2373 37.1101 16.1949 37.2296C16.1468 37.3664 16.1228 37.4696 16.1228 37.539Z" fill="#2B2A29"/><path d="M19.5371 36.0979V36.2139H19.309V37.9096H19.5371V38.0255H18.7514V37.9096H18.8844V37.066C18.7244 37.066 18.5954 37.124 18.4973 37.2399C18.3758 37.3849 18.3152 37.6082 18.3152 37.9096H18.4221V38.0255H17.7144V37.9096H17.8414C17.8414 37.6217 17.9329 37.3984 18.1159 37.2399C18.2738 37.1028 18.4673 37.0342 18.6966 37.0342V36.9935C18.4153 36.9569 18.2035 36.8718 18.061 36.7385C17.9397 36.6246 17.8791 36.4931 17.8791 36.3443C17.8791 36.2342 17.9175 36.1627 17.9946 36.1298C18.0447 36.1085 18.1467 36.0979 18.3008 36.0979L19.5371 36.0979ZM18.8844 36.8632V36.2139H18.5723C18.4991 36.2139 18.4456 36.2279 18.412 36.256C18.3783 36.2839 18.3615 36.326 18.3615 36.382C18.3615 36.5037 18.411 36.6144 18.5103 36.7139C18.6094 36.8135 18.7341 36.8632 18.8844 36.8632Z" fill="#2B2A29"/><path d="M22.1545 36.782H21.4351V36.6661H21.5536C21.5536 36.4844 21.5216 36.3529 21.4578 36.2718C21.4075 36.2081 21.3408 36.1762 21.2575 36.1762C21.1666 36.1762 21.093 36.2149 21.037 36.2922C20.9635 36.3945 20.9267 36.5531 20.9267 36.7675C20.9267 36.8758 20.9344 36.9792 20.9498 37.0776C20.9652 37.1762 20.9917 37.3028 21.0292 37.4574C21.0668 37.612 21.0855 37.7405 21.0855 37.8429C21.0855 37.8662 21.0832 37.8874 21.0783 37.9066C21.0735 37.9261 21.0692 37.9434 21.0654 37.9588L21.0538 37.9995C21.0654 38.0092 21.0865 38.014 21.1173 38.014C21.2213 38.014 21.3201 37.9441 21.4135 37.8044C21.5069 37.6648 21.5536 37.5105 21.5536 37.3417V37.269H21.4351V37.1531H22.1545V37.269H22.0417C22.0417 37.496 21.9387 37.6918 21.7327 37.8566C21.542 38.0098 21.335 38.0865 21.1115 38.0865C21.0577 38.0865 21.0187 38.084 20.9945 38.0792C20.9705 38.0743 20.9421 38.0652 20.9094 38.0516V38.014C20.9094 37.956 20.8954 37.9009 20.8675 37.8487C20.8395 37.7965 20.7726 37.7019 20.6667 37.5646C20.5723 37.4449 20.5088 37.3328 20.4761 37.2284C20.4548 37.1608 20.4443 37.0796 20.4443 36.985V36.9125C20.4443 36.6555 20.5281 36.4467 20.6956 36.2864C20.8535 36.1356 21.05 36.0603 21.2849 36.0603C21.5391 36.0603 21.7336 36.1366 21.8685 36.2892C21.957 36.3898 22.0148 36.5153 22.0418 36.6661H22.1545L22.1545 36.782Z" fill="#2B2A29"/><path d="M23.2059 37.9096H23.3851C23.3196 37.7106 23.2589 37.4863 23.2031 37.2371C23.1741 37.1076 23.1414 36.9433 23.1048 36.7443L23.0586 36.5153C23.0297 36.5481 23.0037 36.5835 22.9806 36.6211C22.9575 36.6588 22.9315 36.7055 22.9025 36.7615C22.8275 36.8968 22.7735 37.0199 22.7408 37.1309C22.708 37.242 22.6917 37.34 22.6917 37.4249C22.6917 37.5466 22.6975 37.6229 22.709 37.6538C22.7207 37.6847 22.7379 37.7001 22.761 37.7001C22.788 37.7001 22.8063 37.7098 22.816 37.7292C22.8333 37.7658 22.842 37.8509 22.842 37.9842C22.842 38.0132 22.8313 38.032 22.8102 38.0408C22.789 38.0494 22.7668 38.0538 22.7437 38.0538C22.7283 38.0538 22.711 38.0523 22.6917 38.0496C22.6724 38.0469 22.657 38.0446 22.6455 38.0427C22.6339 38.0409 22.6199 38.04 22.6036 38.04H22.5674C22.5329 38.04 22.5059 38.0423 22.4866 38.0469C22.4674 38.0515 22.4509 38.0538 22.4374 38.0538C22.4104 38.0538 22.3879 38.0469 22.3696 38.0334C22.3513 38.0199 22.3402 37.9938 22.3364 37.955V37.8562C22.3364 37.7534 22.3527 37.6522 22.3856 37.5524C22.4182 37.4526 22.4876 37.299 22.5935 37.0916L22.7755 36.74C22.841 36.6179 22.8785 36.5462 22.8882 36.5249C22.942 36.4105 22.969 36.3302 22.969 36.2836C22.969 36.2526 22.9618 36.2333 22.9473 36.2256C22.933 36.2178 22.9093 36.2139 22.8765 36.2139H22.6889V36.0979H23.593V36.2139H23.4254C23.4582 36.4515 23.5054 36.7086 23.567 36.9849C23.6209 37.2246 23.6855 37.47 23.7605 37.7212C23.7682 37.7463 23.7775 37.7786 23.788 37.8183C23.7986 37.8579 23.8068 37.8883 23.8125 37.9096H24.0118V38.0255H23.2059L23.2059 37.9096Z" fill="#2B2A29"/><path d="M25.228 38.0255H25.0836L25.0721 38.2371V38.3618C25.0721 38.4293 25.0744 38.4792 25.0792 38.5111C25.0839 38.543 25.0922 38.5879 25.1038 38.6458C25.1076 38.6613 25.1096 38.6739 25.1096 38.6835V38.7125L24.8467 38.7328C24.8467 38.6574 24.8505 38.5709 24.8583 38.4734C24.8659 38.3758 24.8756 38.2864 24.8871 38.2052L24.9073 38.0255H24.659L24.2227 36.2139H24.1101V36.0979H24.8467V36.2139H24.659L25.0026 37.6806C25.0797 37.3192 25.1481 37.0236 25.2078 36.7936C25.2444 36.6467 25.279 36.5222 25.3117 36.4197C25.3445 36.3173 25.3802 36.24 25.4187 36.1878C25.4822 36.1027 25.564 36.0603 25.6642 36.0603C25.7046 36.0603 25.7498 36.0671 25.8 36.0806C25.8501 36.0941 25.8828 36.1125 25.8981 36.1356C25.8963 36.153 25.8886 36.181 25.8751 36.2197C25.8616 36.2467 25.8524 36.2776 25.8476 36.3125C25.8428 36.3472 25.8404 36.4149 25.8404 36.5153H25.8L25.7508 36.4892C25.722 36.4718 25.7046 36.4622 25.6988 36.4603C25.6796 36.4525 25.6593 36.4487 25.6382 36.4487C25.5515 36.4487 25.4745 36.5182 25.4071 36.6573C25.3551 36.7637 25.3069 36.9125 25.2627 37.1037C25.2357 37.2371 25.2087 37.3696 25.1818 37.5009C25.1624 37.5897 25.1486 37.6564 25.1399 37.7009C25.1312 37.7454 25.1144 37.815 25.0893 37.9096H25.2279L25.228 38.0255Z" fill="#2B2A29"/><path d="M26.9324 36.0979H27.6574V36.2139H27.5073V36.9356H27.5274C27.5963 36.7985 27.6368 36.7172 27.6493 36.6921C27.6618 36.667 27.6795 36.6284 27.7025 36.5762C27.7847 36.4043 27.847 36.2912 27.889 36.237C27.979 36.1192 28.0852 36.0603 28.2076 36.0603C28.2535 36.0603 28.2937 36.0636 28.3283 36.0704C28.3627 36.0771 28.4009 36.0902 28.4431 36.1095L28.4201 36.1848C28.4031 36.2274 28.3923 36.2593 28.3872 36.2806C28.3823 36.3019 28.3796 36.3424 28.3796 36.4023L28.374 36.4864H28.319L28.2295 36.4515C28.2101 36.4419 28.1895 36.4337 28.1674 36.4269C28.1451 36.4202 28.1179 36.4168 28.085 36.4168C28.0139 36.4168 27.9474 36.455 27.8858 36.5313C27.824 36.6076 27.7413 36.7569 27.6373 36.9792C27.8355 37.0081 27.9984 37.0758 28.1255 37.182C28.322 37.3463 28.4201 37.5889 28.4201 37.9096H28.5847V38.0255H27.8078V37.9096H27.9349C27.9349 37.6158 27.8895 37.3955 27.799 37.2487C27.7239 37.127 27.6268 37.0612 27.5073 37.0516V37.9096H27.6488V38.0255H26.9441V37.9096H27.0827V37.0516C26.9632 37.0516 26.8659 37.1144 26.7909 37.2399C26.7004 37.3907 26.6551 37.614 26.6551 37.9096H26.7822V38.0255H26.0022V37.9096H26.1697C26.1697 37.5907 26.268 37.3492 26.4644 37.1849C26.5934 37.0767 26.7561 37.0081 26.9526 36.9792C26.8524 36.7627 26.7701 36.6149 26.7056 36.5356C26.6411 36.4565 26.5741 36.4168 26.5048 36.4168C26.4701 36.4168 26.4456 36.4187 26.4312 36.4226C26.4168 36.4264 26.3931 36.4362 26.3603 36.4515L26.2737 36.4864H26.2188L26.213 36.4023C26.213 36.3346 26.2103 36.2902 26.2049 36.2689C26.1905 36.2381 26.1788 36.2101 26.1697 36.1848L26.1409 36.1095C26.1774 36.0922 26.2169 36.0796 26.2593 36.0719C26.3016 36.0641 26.3421 36.0603 26.3806 36.0603C26.502 36.0603 26.6078 36.1183 26.6984 36.2342C26.7369 36.2826 26.8004 36.3965 26.8891 36.5762C26.9102 36.6226 26.9281 36.6613 26.9426 36.6922C26.9571 36.723 26.9978 36.8043 27.0652 36.9356H27.0827V36.2139H26.9324L26.9324 36.0979Z" fill="#2B2A29"/><path d="M28.7667 36.0979C28.9516 36.0999 29.1422 36.1014 29.3387 36.1022C29.5351 36.1032 29.6651 36.1037 29.7287 36.1037C29.7402 36.1037 29.7864 36.1014 29.8674 36.0965C29.9482 36.0917 30.0417 36.0892 30.1475 36.0892C30.2053 36.0892 30.2343 36.1211 30.2343 36.1848C30.2343 36.2043 30.2293 36.2245 30.2198 36.2457C30.2101 36.267 30.1995 36.2902 30.188 36.3153C30.165 36.3733 30.1495 36.4371 30.1418 36.5067C30.134 36.5762 30.1283 36.6188 30.1245 36.6342C30.1129 36.6748 30.0898 36.6951 30.0552 36.6951C30.0262 36.6951 30.006 36.6834 29.9945 36.6603C29.9905 36.6525 29.9819 36.6246 29.9685 36.5762C29.9261 36.4236 29.8682 36.3202 29.7951 36.2661C29.7469 36.2312 29.6776 36.2139 29.5871 36.2139H29.4196V36.9037C29.4754 36.9579 29.5188 36.9922 29.5496 37.0066C29.5804 37.0211 29.6429 37.0409 29.7374 37.066C29.8702 37.0951 30.004 37.124 30.139 37.153C30.2468 37.1937 30.3007 37.3106 30.3007 37.5038V37.8487C30.3007 37.9086 30.2833 37.9545 30.2487 37.9864C30.214 38.0183 30.1697 38.0343 30.1158 38.0343L28.7667 38.0255V37.9096H28.995V36.2139H28.7667L28.7667 36.0979ZM29.4196 37.9096C29.4559 37.9135 29.4961 37.9164 29.5401 37.9183C29.5842 37.9202 29.6282 37.9212 29.6722 37.9212C29.7201 37.9212 29.7516 37.9183 29.7669 37.9124C29.8148 37.8912 29.8425 37.8757 29.8502 37.8661C29.8674 37.8449 29.876 37.7975 29.876 37.7241V37.414C29.876 37.3733 29.8702 37.3439 29.8588 37.3255C29.8473 37.3071 29.8138 37.2825 29.7584 37.2516C29.6588 37.1975 29.5947 37.1608 29.566 37.1415C29.5124 37.1048 29.4636 37.0603 29.4196 37.0081L29.4196 37.9096Z" fill="#2B2A29"/><path d="M31.1673 36.1762H30.9563V36.0603H31.8085V36.1762H31.5948L32.0974 37.9096H32.2881V38.0255H31.4647V37.9096H31.6728L31.4677 37.1965C31.4214 37.4084 31.3434 37.5981 31.2337 37.7656C31.1027 37.964 30.9641 38.0632 30.8177 38.0632C30.729 38.0632 30.6578 38.0381 30.604 37.988C30.5404 37.9282 30.5086 37.8423 30.5086 37.7304C30.5086 37.5838 30.55 37.4188 30.6329 37.2355C30.6964 37.0966 30.7955 36.9239 30.9303 36.7174C30.9863 36.6344 31.0421 36.5515 31.0979 36.4685C31.1479 36.3836 31.1731 36.3064 31.1731 36.237C31.1731 36.2235 31.1711 36.2033 31.1673 36.1762ZM30.7599 37.539C30.7599 37.5988 30.7744 37.6441 30.8032 37.6749C30.8322 37.7058 30.8678 37.7212 30.9101 37.7212C30.9621 37.7212 31.0045 37.701 31.0373 37.6605C31.0988 37.5814 31.1634 37.484 31.2308 37.3683C31.3232 37.2103 31.3752 37.086 31.3868 36.9953L31.2626 36.4979C31.2009 36.5827 31.1393 36.6667 31.0777 36.7495C31.0257 36.8228 30.9843 36.8883 30.9535 36.9461C30.915 37.0156 30.8745 37.1101 30.8322 37.2296C30.784 37.3664 30.7599 37.4696 30.7599 37.539Z" fill="#2B2A29"/><path d="M33.747 36.924H34.1167C34.1359 36.7864 34.2004 36.6468 34.3102 36.5053C34.395 36.3948 34.5018 36.2882 34.631 36.1854C34.6443 36.1757 34.6665 36.1582 34.6973 36.133C34.7147 36.1176 34.732 36.1006 34.7493 36.0822C34.7666 36.0637 34.785 36.0487 34.8043 36.0371C34.8234 36.0254 34.8466 36.0197 34.8736 36.0197C34.8909 36.0197 34.9121 36.0332 34.9371 36.0603C34.9526 36.0797 34.9689 36.0981 34.9862 36.1154C35.0286 36.158 35.0617 36.1905 35.0859 36.2126C35.1099 36.2349 35.1644 36.2828 35.2491 36.3564C35.4012 36.4899 35.5023 36.6128 35.5525 36.725C35.5948 36.8179 35.616 36.9254 35.616 37.0472C35.616 37.1769 35.591 37.294 35.5408 37.3985C35.4985 37.4855 35.431 37.5784 35.3387 37.6771C35.329 37.6868 35.2299 37.7826 35.0411 37.9645C34.9544 38.0535 34.8938 38.098 34.8591 38.098C34.8379 38.098 34.8091 38.085 34.7725 38.0589C34.7358 38.0328 34.6636 37.9724 34.5558 37.8777C34.4152 37.7578 34.3179 37.6632 34.264 37.5937C34.1504 37.4468 34.0936 37.2873 34.0936 37.1154V37.04H33.747V37.9096H33.9751V38.0255H33.0941V37.9096H33.3222V36.2139H33.0941V36.0979H33.9751V36.2139H33.747L33.747 36.924ZM34.6915 36.3878C34.5933 36.3993 34.5134 36.4462 34.4517 36.5283C34.3902 36.6105 34.3594 36.6979 34.3594 36.7907C34.3594 36.8584 34.3815 36.9317 34.4257 37.011C34.4912 37.1289 34.6068 37.267 34.7725 37.4255C34.9091 37.5608 34.9852 37.669 35.0006 37.7502C35.0854 37.7134 35.1566 37.6652 35.2144 37.6052C35.2857 37.5317 35.3271 37.4516 35.3387 37.3646C35.3425 37.3453 35.3444 37.3299 35.3444 37.3182C35.3444 37.3066 35.3425 37.2912 35.3387 37.2718C35.3271 37.1927 35.2683 37.0903 35.1624 36.9646C35.1239 36.9202 35.0613 36.8497 34.9746 36.753C34.8688 36.6371 34.8128 36.5752 34.8071 36.5674C34.7455 36.4979 34.707 36.4381 34.6915 36.3878Z" fill="#2B2A29"/><path d="M35.8354 36.0979H36.8667C36.9091 36.0979 36.9529 36.0965 36.9982 36.0936C37.0435 36.0907 37.0867 36.0869 37.1282 36.0819C37.1695 36.0771 37.2013 36.0723 37.2235 36.0675C37.2456 36.0627 37.2615 36.0603 37.2712 36.0603C37.302 36.0603 37.3246 36.0704 37.3391 36.0907C37.3535 36.111 37.3608 36.1366 37.3608 36.1675C37.3608 36.1868 37.3535 36.2139 37.3391 36.2487C37.3246 36.2834 37.314 36.31 37.3073 36.3283C37.3005 36.3468 37.2923 36.3742 37.2828 36.411C37.2731 36.4477 37.2655 36.4903 37.2597 36.5385C37.2538 36.5868 37.249 36.6188 37.2452 36.6341C37.2337 36.6748 37.2105 36.6951 37.1759 36.6951C37.147 36.6951 37.1267 36.6834 37.1152 36.6602C37.1113 36.6525 37.1027 36.6245 37.0892 36.5762C37.0468 36.4236 36.989 36.3202 36.9159 36.266C36.8677 36.2312 36.7984 36.2138 36.7079 36.2138H36.4883V37.9096H36.7166V38.0255H35.8354V37.9096H36.0637V36.2138H35.8354L35.8354 36.0979Z" fill="#2B2A29"/><path d="M38.1466 37.2893V37.9096H38.3748V38.0255H37.4908V37.9096H37.719L37.722 36.9009V36.2834C37.722 36.2023 37.7971 36.1424 37.9473 36.1037C38.0628 36.0748 38.2101 36.0603 38.3892 36.0603C38.6049 36.0603 38.7763 36.1135 38.9034 36.2197C39.0229 36.3202 39.0826 36.4507 39.0826 36.611C39.0826 36.7636 39.0388 36.8907 38.9515 36.9922C38.8642 37.0936 38.7543 37.1443 38.6218 37.1443C38.568 37.1443 38.519 37.1347 38.475 37.1154C38.4404 37.0961 38.4144 37.0815 38.3971 37.0718L38.3366 37.0429L38.1466 37.2893ZM38.1466 37.124L38.3217 36.9009C38.3561 36.9318 38.3896 36.9473 38.4221 36.9473C38.4815 36.9473 38.526 36.9159 38.5557 36.853C38.5852 36.7903 38.6001 36.7077 38.6001 36.6053C38.6001 36.47 38.5867 36.3704 38.56 36.3067C38.5236 36.2197 38.4604 36.1762 38.3705 36.1762C38.2671 36.1762 38.2002 36.24 38.1696 36.3675C38.1542 36.4312 38.1466 36.5599 38.1466 36.7531L38.1466 37.124Z" fill="#2B2A29"/><path d="M40.1918 36.0979V36.2139H39.9635V36.8921C40.0348 36.9598 40.1388 37.0168 40.2755 37.0632C40.3891 37.1018 40.4836 37.1212 40.5586 37.1212L40.6712 37.1182C40.6829 37.1164 40.6992 37.1154 40.7204 37.1154C40.7705 37.1154 40.8032 37.1309 40.8187 37.1618C40.834 37.1927 40.8417 37.2371 40.8417 37.2951V37.8343C40.8417 37.9173 40.8297 37.97 40.8057 37.9922C40.7815 38.0144 40.7377 38.0255 40.6742 38.0255H39.3106V37.9096H39.5389V36.2138H39.3106V36.0979L40.1918 36.0979ZM39.9635 37.9096H40.212C40.2736 37.9096 40.3169 37.9038 40.3419 37.8922C40.3921 37.869 40.4171 37.8236 40.4171 37.756V37.3618C40.4171 37.3174 40.4102 37.2863 40.3967 37.269C40.3831 37.2516 40.3463 37.2333 40.2862 37.2138C40.2261 37.1946 40.1709 37.1724 40.1205 37.1473C40.0604 37.1164 40.008 37.0825 39.9635 37.0457V37.9096ZM41.1768 37.9096V36.2139H40.9486V36.0979H41.8297V36.2139H41.6014V37.9096H41.8297V38.0255H40.9486V37.9096H41.1768Z" fill="#2B2A29"/><path d="M16.9749 10.6755L13.4634 6.28327L15.2131 3.97253L18.7246 8.36474L16.9749 10.6755Z" fill="url(#paint1_linear_1_1991)"/><path d="M22.4204 2.11963L20.8154 0L19.5215 1.6185L18.2275 0L16.4778 2.31074L19.9892 6.70296L21.7389 4.39222L21.1712 3.68211L22.4204 2.11963Z" fill="url(#paint2_linear_1_1991)"/><path d="M28.882 10.6755L32.3935 6.28327L30.6438 3.97253L27.1323 8.36474L28.882 10.6755Z" fill="url(#paint3_linear_1_1991)"/><path d="M23.4365 2.11963L25.0415 0L26.3355 1.6185L27.6294 0L29.3791 2.31074L25.8677 6.70296L24.118 4.39222L24.6857 3.68211L23.4365 2.11963Z" fill="url(#paint4_linear_1_1991)"/><path d="M22.9391 2.71301V11.3858L34.6498 26.1787C34.6503 26.1791 36.2263 27.4014 38.4867 27.4014C38.6827 27.4014 38.8677 27.3984 39.0443 27.3933C41.3799 27.3262 42.0462 26.849 42.0462 26.849L22.9391 2.71301Z" fill="url(#paint5_linear_1_1991)"/><path d="M3.83203 26.849C3.83203 26.849 4.49835 27.3262 6.83398 27.3933C7.01051 27.3984 7.19552 27.4014 7.39155 27.4014C9.65198 27.4014 11.2279 26.1791 11.2284 26.1787L22.9391 11.3858V2.71301L3.83203 26.849Z" fill="url(#paint6_linear_1_1991)"/><path d="M13.7276 18.6853L6.83398 27.3933C7.01051 27.3984 7.19552 27.4013 7.39155 27.4013C9.65198 27.4013 11.2279 26.179 11.2284 26.1786L15.7499 20.4671H30.1284L32.1507 18.6853H13.7276Z" fill="url(#paint7_linear_1_1991)"/><path d="M32.1506 18.6854L22.9391 7.04944V11.3858L27.3072 16.9036H18.571L13.7276 18.6854H32.1506Z" fill="url(#paint8_linear_1_1991)"/><path d="M18.571 16.9036L22.9391 11.3858V7.04944L13.7276 18.6854L18.571 16.9036Z" fill="url(#paint9_linear_1_1991)"/><path d="M32.1506 18.6853L30.1283 20.4671L34.6498 26.1786C34.6503 26.179 36.2263 27.4013 38.4867 27.4013C38.6827 27.4013 38.8677 27.3984 39.0443 27.3933L32.1506 18.6853Z" fill="url(#paint10_linear_1_1991)"/></g><defs><linearGradient id="paint0_linear_1_1991" x1="-1.5052e-07" y1="37.1783" x2="45.9692" y2="37.1783" gradientUnits="userSpaceOnUse"><stop stop-color="#A7722C"/><stop offset="0.129684" stop-color="#E9C15C"/><stop offset="0.262858" stop-color="#A36E29"/><stop offset="0.709079" stop-color="#EAD565"/><stop offset="1" stop-color="#A26C28"/></linearGradient><linearGradient id="paint1_linear_1_1991" x1="13.4527" y1="7.33924" x2="18.7251" y2="7.33924" gradientUnits="userSpaceOnUse"><stop stop-color="#2A2217"/><stop offset="1" stop-color="#BF561F"/></linearGradient><linearGradient id="paint2_linear_1_1991" x1="16.4657" y1="3.36671" x2="22.421" y2="3.36671" gradientUnits="userSpaceOnUse"><stop stop-color="#2A2217"/><stop offset="1" stop-color="#BF561F"/></linearGradient><linearGradient id="paint3_linear_1_1991" x1="27.1323" y1="7.35997" x2="32.3945" y2="7.35997" gradientUnits="userSpaceOnUse"><stop stop-color="#A7722C"/><stop offset="0.129684" stop-color="#E9C15C"/><stop offset="0.262858" stop-color="#A36E29"/><stop offset="0.709079" stop-color="#EAD565"/><stop offset="1" stop-color="#A26C28"/></linearGradient><linearGradient id="paint4_linear_1_1991" x1="23.4365" y1="3.38745" x2="29.3802" y2="3.38745" gradientUnits="userSpaceOnUse"><stop stop-color="#A7722C"/><stop offset="0.129684" stop-color="#E9C15C"/><stop offset="0.262858" stop-color="#A36E29"/><stop offset="0.709079" stop-color="#EAD565"/><stop offset="1" stop-color="#A26C28"/></linearGradient><linearGradient id="paint5_linear_1_1991" x1="22.9001" y1="15.1133" x2="42.0482" y2="15.1133" gradientUnits="userSpaceOnUse"><stop stop-color="#2A2217"/><stop offset="1" stop-color="#BF561F"/></linearGradient><linearGradient id="paint6_linear_1_1991" x1="3.83203" y1="15.1897" x2="22.9428" y2="15.1897" gradientUnits="userSpaceOnUse"><stop stop-color="#A7722C"/><stop offset="0.129684" stop-color="#E9C15C"/><stop offset="0.262858" stop-color="#A36E29"/><stop offset="0.709079" stop-color="#EAD565"/><stop offset="1" stop-color="#A26C28"/></linearGradient><linearGradient id="paint7_linear_1_1991" x1="6.78234" y1="23.0631" x2="32.1533" y2="23.0631" gradientUnits="userSpaceOnUse"><stop stop-color="#2A2217"/><stop offset="1" stop-color="#BF561F"/></linearGradient><linearGradient id="paint8_linear_1_1991" x1="13.7276" y1="12.9298" x2="32.1542" y2="12.9298" gradientUnits="userSpaceOnUse"><stop stop-color="#A7722C"/><stop offset="0.129684" stop-color="#E9C15C"/><stop offset="0.262858" stop-color="#A36E29"/><stop offset="0.709079" stop-color="#EAD565"/><stop offset="1" stop-color="#A26C28"/></linearGradient><linearGradient id="paint9_linear_1_1991" x1="13.7088" y1="12.8938" x2="22.9401" y2="12.8938" gradientUnits="userSpaceOnUse"><stop stop-color="#2A2217"/><stop offset="1" stop-color="#BF561F"/></linearGradient><linearGradient id="paint10_linear_1_1991" x1="30.1283" y1="23.0901" x2="39.046" y2="23.0901" gradientUnits="userSpaceOnUse"><stop stop-color="#A7722C"/><stop offset="0.129684" stop-color="#E9C15C"/><stop offset="0.262858" stop-color="#A36E29"/><stop offset="0.709079" stop-color="#EAD565"/><stop offset="1" stop-color="#A26C28"/></linearGradient><clipPath id="clip0_1_1991"><rect width="45.9843" height="40" fill="white"/></clipPath></defs></svg>