<svg xmlns="http://www.w3.org/2000/svg" width="30" height="30" viewBox="0 0 30 30" fill="none"><rect width="30" height="30" rx="15" fill="#2457A1"/><path d="M19.5806 22.9999C18.8007 22.9829 17.9622 22.7543 17.1542 22.4069C14.7084 21.3552 12.659 19.777 10.9686 17.7263C9.91756 16.4512 9.05059 15.0664 8.4691 13.5125C8.19692 12.7852 7.99706 12.0441 8.00003 11.2584C8.0026 10.5808 8.2246 10.0087 8.73185 9.54269C9.13045 9.17654 9.50222 8.78131 9.8893 8.40247C10.1684 8.12931 10.4959 7.97007 10.8977 8.0047C11.1901 8.0299 11.4431 8.15265 11.6478 8.35459C12.3473 9.0445 13.0517 9.73005 13.7299 10.4405C14.2527 10.9881 14.2196 11.6566 13.6771 12.2133C13.2903 12.6101 12.8929 12.9966 12.4994 13.3869C12.3549 13.5303 12.3492 13.5532 12.4284 13.7383C12.7357 14.4568 13.1932 15.0766 13.6942 15.668C14.4856 16.6021 15.3646 17.4402 16.4019 18.0984C16.6985 18.2866 17.0201 18.4355 17.3298 18.6033C17.4489 18.6679 17.5261 18.6017 17.604 18.5232C17.9972 18.1266 18.3897 17.7294 18.786 17.336C19.3664 16.76 20.0605 16.7605 20.6427 17.3383C21.2863 17.9773 21.9265 18.6196 22.568 19.2608C22.6065 19.2994 22.6439 19.3393 22.6796 19.3806C23.1144 19.8847 23.1237 20.4949 22.7 21.0081C22.6121 21.1146 22.5104 21.2099 22.4133 21.3086C22.0837 21.6438 21.7499 21.975 21.4238 22.3137C20.9699 22.7851 20.4192 23.0065 19.5806 22.9999Z" fill="white"/></svg>